<svg width="16" height="16" viewBox="0 0 16 16" fill="none" xmlns="http://www.w3.org/2000/svg">
<g clip-path="url(#clip0_3413_25635)">
<path d="M13.3572 15.999H2.64255C2.19201 16.0001 1.74872 15.8857 1.35497 15.6667C0.961213 15.4477 0.630139 15.1315 0.393332 14.7482C0.156525 14.3649 0.0218856 13.9274 0.00225914 13.4772C-0.0173674 13.0271 0.0786742 12.5795 0.28122 12.177L5.63922 1.45838C5.84347 1.04541 6.15296 0.69357 6.5365 0.438306C6.92004 0.183043 7.36408 0.0333731 7.82389 0.00437715C8.34269 -0.0286387 8.85975 0.0915887 9.31076 0.350107C9.76178 0.608624 10.1268 0.994025 10.3606 1.45838L15.7186 12.177C15.9199 12.5796 16.015 13.027 15.9949 13.4767C15.9747 13.9263 15.8399 14.3634 15.6034 14.7463C15.3668 15.1293 15.0362 15.4454 14.6431 15.6646C14.25 15.8839 13.8073 15.999 13.3572 15.999ZM1.33322 13.361C1.33602 13.707 1.47502 14.0379 1.72009 14.2821C1.96517 14.5263 2.29659 14.6641 2.64255 14.6657H13.3572C13.7032 14.6641 14.0346 14.5263 14.2797 14.2821C14.5248 14.0379 14.6638 13.707 14.6666 13.361C14.6662 13.1569 14.6178 12.9557 14.5252 12.7737L9.16855 2.05438C9.0602 1.83716 8.89344 1.65443 8.68701 1.52672C8.48058 1.399 8.24263 1.33135 7.99989 1.33135C7.75714 1.33135 7.5192 1.399 7.31276 1.52672C7.10633 1.65443 6.93958 1.83716 6.83122 2.05438L1.47322 12.7737C1.38111 12.9558 1.33315 13.157 1.33322 13.361Z" fill="#D85140"/>
</g>
<path d="M8 4V10" stroke="#D85140" stroke-width="1.5" stroke-linecap="round"/>
<circle cx="8" cy="12" r="1" fill="#D85140"/>
<defs>
<clipPath id="clip0_3413_25635">
<rect width="16" height="16" fill="white"/>
</clipPath>
</defs>
</svg>
