<svg width="16" height="16" viewBox="0 0 16 16" fill="none" xmlns="http://www.w3.org/2000/svg">
<g clip-path="url(#clip0_2182_34573)">
<path d="M4.94922 14C5.20766 14.5943 5.63404 15.1001 6.17599 15.4554C6.71794 15.8107 7.35186 16 7.99989 16C8.64791 16 9.28183 15.8107 9.82378 15.4554C10.3657 15.1001 10.7921 14.5943 11.0506 14H4.94922Z" fill="#171C8F"/>
<path d="M14.9279 8.36595L13.7705 4.55062C13.3999 3.21618 12.5941 2.0438 11.4811 1.21962C10.3681 0.395439 9.01166 -0.0333017 7.62715 0.00147191C6.24264 0.0362455 4.90942 0.53254 3.83919 1.41156C2.76895 2.29057 2.02303 3.50193 1.71987 4.85329L0.821205 8.54462C0.701761 9.03512 0.69529 9.54635 0.802279 10.0397C0.909269 10.5331 1.12692 10.9957 1.43882 11.3927C1.75072 11.7896 2.1487 12.1106 2.60275 12.3313C3.05679 12.5519 3.55504 12.6666 4.05987 12.6666H11.7379C12.2584 12.6666 12.7716 12.5448 13.2365 12.3108C13.7015 12.0768 14.1051 11.7372 14.4152 11.3191C14.7253 10.9011 14.9332 10.4162 15.0222 9.90341C15.1112 9.39059 15.0789 8.86404 14.9279 8.36595Z" fill="#171C8F"/>
</g>
<defs>
<clipPath id="clip0_2182_34573">
<rect width="16" height="16" fill="white"/>
</clipPath>
</defs>
</svg>
