<svg width="20" height="20" viewBox="0 0 20 20" fill="none" xmlns="http://www.w3.org/2000/svg">
<g id="fi-rr-download" clip-path="url(#clip0_464_45680)">
<path id="Vector" d="M8.23267 15.1017C8.46484 15.334 8.7405 15.5183 9.04392 15.644C9.34734 15.7698 9.67256 15.8345 10.001 15.8345C10.3294 15.8345 10.6547 15.7698 10.9581 15.644C11.2615 15.5183 11.5372 15.334 11.7693 15.1017L14.4452 12.4258C14.5886 12.2672 14.6656 12.0594 14.6601 11.8455C14.6546 11.6317 14.5671 11.4282 14.4157 11.2771C14.2642 11.126 14.0605 11.0389 13.8467 11.0338C13.6328 11.0288 13.4252 11.1062 13.2668 11.25L10.8285 13.6892L10.8343 0.833333C10.8343 0.61232 10.7465 0.400358 10.5903 0.244078C10.434 0.0877974 10.222 0 10.001 0V0C9.77999 0 9.56803 0.0877974 9.41175 0.244078C9.25547 0.400358 9.16767 0.61232 9.16767 0.833333L9.16017 13.6733L6.73517 11.25C6.5788 11.0937 6.36677 11.006 6.14571 11.0061C5.92465 11.0062 5.71268 11.0941 5.55642 11.2504C5.40016 11.4068 5.31242 11.6188 5.3125 11.8399C5.31258 12.0609 5.40047 12.2729 5.55684 12.4292L8.23267 15.1017Z" fill="#171C8F"/>
<path id="Vector_2" d="M19.1667 13.3332C18.9457 13.3332 18.7337 13.421 18.5774 13.5773C18.4211 13.7336 18.3333 13.9455 18.3333 14.1666V17.4999C18.3333 17.7209 18.2455 17.9329 18.0893 18.0891C17.933 18.2454 17.721 18.3332 17.5 18.3332H2.5C2.27899 18.3332 2.06702 18.2454 1.91074 18.0891C1.75446 17.9329 1.66667 17.7209 1.66667 17.4999V14.1666C1.66667 13.9455 1.57887 13.7336 1.42259 13.5773C1.26631 13.421 1.05435 13.3332 0.833333 13.3332C0.61232 13.3332 0.400358 13.421 0.244078 13.5773C0.0877974 13.7336 0 13.9455 0 14.1666L0 17.4999C0 18.1629 0.263392 18.7988 0.732233 19.2676C1.20107 19.7365 1.83696 19.9999 2.5 19.9999H17.5C18.163 19.9999 18.7989 19.7365 19.2678 19.2676C19.7366 18.7988 20 18.1629 20 17.4999V14.1666C20 13.9455 19.9122 13.7336 19.7559 13.5773C19.5996 13.421 19.3877 13.3332 19.1667 13.3332Z" fill="#171C8F"/>
</g>
<defs>
<clipPath id="clip0_464_45680">
<rect width="20" height="20" fill="white"/>
</clipPath>
</defs>
</svg>
