<svg width="32" height="32" viewBox="0 0 32 32" fill="none" xmlns="http://www.w3.org/2000/svg">
<rect x="0.5" y="0.5" width="31" height="31" rx="3.5" fill="white"/>
<g clip-path="url(#clip0_133_151248)">
<path d="M14.5861 20.0813C14.7719 20.2672 14.9924 20.4146 15.2351 20.5152C15.4779 20.6158 15.738 20.6676 16.0008 20.6676C16.2636 20.6676 16.5237 20.6158 16.7665 20.5152C17.0092 20.4146 17.2297 20.2672 17.4155 20.0813L19.5561 17.9407C19.6709 17.8137 19.7325 17.6475 19.7281 17.4764C19.7237 17.3054 19.6537 17.1425 19.5325 17.0216C19.4114 16.9008 19.2484 16.8311 19.0773 16.8271C18.9062 16.823 18.7402 16.885 18.6135 17L16.6628 18.9513L16.6675 8.66667C16.6675 8.48986 16.5972 8.32029 16.4722 8.19526C16.3472 8.07024 16.1776 8 16.0008 8V8C15.824 8 15.6544 8.07024 15.5294 8.19526C15.4044 8.32029 15.3341 8.48986 15.3341 8.66667L15.3281 18.9387L13.3881 17C13.263 16.875 13.0934 16.8048 12.9166 16.8049C12.7397 16.8049 12.5701 16.8752 12.4451 17.0003C12.3201 17.1254 12.2499 17.2951 12.25 17.4719C12.2501 17.6487 12.3204 17.8183 12.4455 17.9433L14.5861 20.0813Z" fill="#2D3394"/>
<path d="M23.3333 18.6665C23.1565 18.6665 22.987 18.7367 22.8619 18.8618C22.7369 18.9868 22.6667 19.1564 22.6667 19.3332V21.9998C22.6667 22.1766 22.5964 22.3462 22.4714 22.4712C22.3464 22.5963 22.1768 22.6665 22 22.6665H10C9.82319 22.6665 9.65362 22.5963 9.5286 22.4712C9.40357 22.3462 9.33333 22.1766 9.33333 21.9998V19.3332C9.33333 19.1564 9.2631 18.9868 9.13807 18.8618C9.01305 18.7367 8.84348 18.6665 8.66667 18.6665C8.48986 18.6665 8.32029 18.7367 8.19526 18.8618C8.07024 18.9868 8 19.1564 8 19.3332V21.9998C8 22.5303 8.21071 23.039 8.58579 23.414C8.96086 23.7891 9.46957 23.9998 10 23.9998H22C22.5304 23.9998 23.0391 23.7891 23.4142 23.414C23.7893 23.039 24 22.5303 24 21.9998V19.3332C24 19.1564 23.9298 18.9868 23.8047 18.8618C23.6797 18.7367 23.5101 18.6665 23.3333 18.6665Z" fill="#2D3394"/>
</g>
<rect x="0.5" y="0.5" width="31" height="31" rx="3.5" stroke="#CFD2D9"/>
<defs>
<clipPath id="clip0_133_151248">
<rect width="16" height="16" fill="white" transform="translate(8 8)"/>
</clipPath>
</defs>
</svg>
