<svg width="8" height="6" viewBox="0 0 8 6" fill="none" xmlns="http://www.w3.org/2000/svg">
<path d="M0.808158 0.759674H7.41178C7.5286 0.760164 7.64265 0.795282 7.73951 0.860587C7.83637 0.925892 7.91169 1.01845 7.95594 1.12656C8.0002 1.23467 8.0114 1.35348 7.98814 1.46796C7.96488 1.58244 7.90819 1.68745 7.82525 1.76971L4.52934 5.06561C4.47443 5.12097 4.4091 5.16491 4.33713 5.1949C4.26515 5.22489 4.18795 5.24032 4.10997 5.24032C4.032 5.24032 3.95479 5.22489 3.88282 5.1949C3.81084 5.16491 3.74551 5.12097 3.6906 5.06561L0.394694 1.76971C0.311752 1.68745 0.255065 1.58244 0.231802 1.46796C0.208538 1.35348 0.219743 1.23467 0.263998 1.12656C0.308254 1.01845 0.383574 0.925892 0.480433 0.860587C0.577292 0.795282 0.691341 0.760164 0.808158 0.759674Z" fill="#B8BABD"/>
</svg>
