<svg width="16" height="16" xmlns="http://www.w3.org/2000/svg" fill="none">

 <g>
  <title>Layer 1</title>
  <path id="svg_1" fill="#9598A1" d="m6.59698,12.03791c0.18574,0.1859 0.40627,0.3333 0.64901,0.4339c0.24273,0.1006 0.50291,0.1524 0.76566,0.1524c0.26275,0 0.52293,-0.0518 0.76566,-0.1524c0.24274,-0.1006 0.46327,-0.248 0.64901,-0.4339l2.14066,-2.14063c0.11478,-0.12694 0.17634,-0.29315 0.17195,-0.46423c-0.0044,-0.17108 -0.07441,-0.33391 -0.19555,-0.45479c-0.12113,-0.12088 -0.28412,-0.19055 -0.4552,-0.19458c-0.17109,-0.00403 -0.33717,0.05789 -0.46386,0.17293l-1.95067,1.9513l0.00467,-10.28463c0,-0.17681 -0.07024,-0.34638 -0.19527,-0.47141c-0.12502,-0.12502 -0.29459,-0.19526 -0.4714,-0.19526l0,0c-0.17681,0 -0.34638,0.07024 -0.47141,0.19526c-0.12502,0.12503 -0.19526,0.2946 -0.19526,0.47141l-0.006,10.27203l-1.94,-1.9387c-0.12509,-0.125 -0.29472,-0.1952 -0.47157,-0.19514c-0.17684,0.00007 -0.34642,0.07038 -0.47143,0.19547c-0.125,0.1251 -0.19519,0.29473 -0.19513,0.47157c0.00006,0.17685 0.07037,0.34643 0.19547,0.47143l2.14066,2.13797z"/>
  <g>
   <path fill="#9598A1" d="m15.3333,10.53794c-0.1768,0 -0.3463,0.07024 -0.4714,0.19527c-0.125,0.12502 -0.1952,0.29459 -0.1952,0.4714l0,2.66666c0,0.17681 -0.0703,0.34638 -0.1953,0.47141c-0.125,0.12502 -0.2946,0.19526 -0.4714,0.19526l-12,0c-0.17681,0 -0.34638,-0.07024 -0.4714,-0.19526c-0.12503,-0.12503 -0.19527,-0.2946 -0.19527,-0.47141l0,-2.66666c0,-0.17681 -0.07023,-0.34638 -0.19526,-0.4714c-0.12502,-0.12503 -0.29459,-0.19527 -0.4714,-0.19527c-0.17681,0 -0.34638,0.07024 -0.47141,0.19527c-0.12502,0.12502 -0.19526,0.29459 -0.19526,0.4714l0,2.66666c0,0.53043 0.21071,1.03914 0.58579,1.41421c0.37507,0.37507 0.88378,0.58579 1.41421,0.58579l12,0c0.5304,0 1.0391,-0.21072 1.4142,-0.58579c0.3751,-0.37507 0.5858,-0.88378 0.5858,-1.41421l0,-2.66666c0,-0.17681 -0.0702,-0.34638 -0.1953,-0.4714c-0.125,-0.12503 -0.2946,-0.19527 -0.4714,-0.19527z"/>
  </g>
 </g>
</svg>