<svg width="24" height="24" viewBox="0 0 24 24" fill="none" xmlns="http://www.w3.org/2000/svg">
<g id="Group 2390">
<g id="Group 2394">
<path id="Vector" d="M20.0362 24H3.9642C3.28838 24.0016 2.62344 23.83 2.03281 23.5015C1.44219 23.1731 0.945575 22.6987 0.590365 22.1238C0.235154 21.5489 0.0331947 20.8925 0.00375493 20.2173C-0.0256848 19.5422 0.118377 18.8707 0.422197 18.267L8.4592 2.18903C8.76558 1.56958 9.22981 1.04182 9.80512 0.658924C10.3804 0.276029 11.0465 0.0515245 11.7362 0.00803057C12.5144 -0.0414931 13.29 0.138848 13.9665 0.526625C14.643 0.914401 15.1906 1.4925 15.5412 2.18903L23.5782 18.267C23.8802 18.8709 24.0229 19.5419 23.9927 20.2164C23.9624 20.891 23.7603 21.5465 23.4054 22.1209C23.0505 22.6953 22.5547 23.1695 21.965 23.4984C21.3753 23.8273 20.7114 23.9999 20.0362 24Z" fill="#F44343"/>
<path id="Vector_2" d="M12 20C11.8022 20 11.6089 19.9414 11.4444 19.8315C11.28 19.7216 11.1518 19.5654 11.0761 19.3827C11.0004 19.2 10.9806 18.9989 11.0192 18.8049C11.0578 18.6109 11.153 18.4327 11.2929 18.2929C11.4327 18.153 11.6109 18.0578 11.8049 18.0192C11.9989 17.9806 12.2 18.0004 12.3827 18.0761C12.5654 18.1518 12.7216 18.28 12.8315 18.4444C12.9414 18.6089 13 18.8022 13 19C13 19.2652 12.8946 19.5196 12.7071 19.7071C12.5196 19.8946 12.2652 20 12 20ZM13 15C13 15.2652 12.8946 15.5196 12.7071 15.7071C12.5196 15.8946 12.2652 16 12 16C11.7348 16 11.4804 15.8946 11.2929 15.7071C11.1054 15.5196 11 15.2652 11 15V7C11 6.73478 11.1054 6.48043 11.2929 6.29289C11.4804 6.10536 11.7348 6 12 6C12.2652 6 12.5196 6.10536 12.7071 6.29289C12.8946 6.48043 13 6.73478 13 7V15Z" fill="white"/>
</g>
</g>
</svg>
