<svg width="10" height="10" viewBox="0 0 10 10" fill="none" xmlns="http://www.w3.org/2000/svg">
<path d="M9.5625 5.4375C9.44792 5.55208 9.30208 5.61208 9.125 5.6175C8.94792 5.6225 8.80208 5.56771 8.6875 5.45313L5.625 2.39063L5.625 9.375C5.625 9.55208 5.565 9.70062 5.445 9.82062C5.32542 9.94021 5.17708 10 5 10C4.82292 10 4.67437 9.94021 4.55437 9.82062C4.43479 9.70062 4.375 9.55208 4.375 9.375L4.375 2.39063L1.3125 5.45313C1.19792 5.56771 1.05208 5.6225 0.875 5.6175C0.697916 5.61208 0.552083 5.55208 0.4375 5.4375C0.322916 5.32292 0.265625 5.17708 0.265625 5C0.265625 4.82292 0.322916 4.67708 0.4375 4.5625L4.5625 0.437501C4.61458 0.375001 4.67958 0.330625 4.7575 0.304375C4.83583 0.278542 4.91667 0.265625 5 0.265625C5.08333 0.265625 5.16146 0.278542 5.23437 0.304375C5.30729 0.330625 5.375 0.375001 5.4375 0.437501L9.5625 4.5625C9.67708 4.67708 9.73437 4.82292 9.73437 5C9.73437 5.17708 9.67708 5.32292 9.5625 5.4375Z" fill="#188732"/>
</svg>
