<svg width="14" height="14" viewBox="0 0 14 14" fill="none" xmlns="http://www.w3.org/2000/svg">
<path d="M6.33331 3.66668H7.66665V5.00001H6.33331V3.66668ZM6.33331 6.33334H7.66665V10.3333H6.33331V6.33334ZM6.99998 0.333344C3.31998 0.333344 0.333313 3.32001 0.333313 7.00001C0.333313 10.68 3.31998 13.6667 6.99998 13.6667C10.68 13.6667 13.6666 10.68 13.6666 7.00001C13.6666 3.32001 10.68 0.333344 6.99998 0.333344ZM6.99998 12.3333C4.05998 12.3333 1.66665 9.94001 1.66665 7.00001C1.66665 4.06001 4.05998 1.66668 6.99998 1.66668C9.93998 1.66668 12.3333 4.06001 12.3333 7.00001C12.3333 9.94001 9.93998 12.3333 6.99998 12.3333Z" fill="#9EA1A7"/>
</svg>
