<svg width="526" height="153" viewBox="0 0 526 153" fill="none" xmlns="http://www.w3.org/2000/svg">
<path d="M11.1094 134.078H5.03125V131.625H11.1094C12.2865 131.625 13.2396 131.438 13.9688 131.062C14.6979 130.688 15.2292 130.167 15.5625 129.5C15.9062 128.833 16.0781 128.073 16.0781 127.219C16.0781 126.438 15.9062 125.703 15.5625 125.016C15.2292 124.328 14.6979 123.776 13.9688 123.359C13.2396 122.932 12.2865 122.719 11.1094 122.719H5.73438V143H2.71875V120.25H11.1094C12.8281 120.25 14.2812 120.547 15.4688 121.141C16.6562 121.734 17.5573 122.557 18.1719 123.609C18.7865 124.651 19.0938 125.844 19.0938 127.188C19.0938 128.646 18.7865 129.891 18.1719 130.922C17.5573 131.953 16.6562 132.74 15.4688 133.281C14.2812 133.812 12.8281 134.078 11.1094 134.078ZM25.6094 119V143H22.7031V119H25.6094ZM37.2656 143.312C36.0885 143.312 35.0208 143.115 34.0625 142.719C33.1146 142.312 32.2969 141.745 31.6094 141.016C30.9323 140.286 30.4115 139.422 30.0469 138.422C29.6823 137.422 29.5 136.328 29.5 135.141V134.484C29.5 133.109 29.7031 131.885 30.1094 130.812C30.5156 129.729 31.0677 128.812 31.7656 128.062C32.4635 127.312 33.2552 126.745 34.1406 126.359C35.026 125.974 35.9427 125.781 36.8906 125.781C38.099 125.781 39.1406 125.99 40.0156 126.406C40.901 126.823 41.625 127.406 42.1875 128.156C42.75 128.896 43.1667 129.771 43.4375 130.781C43.7083 131.781 43.8438 132.875 43.8438 134.062V135.359H31.2188V133H40.9531V132.781C40.9115 132.031 40.7552 131.302 40.4844 130.594C40.224 129.885 39.8073 129.302 39.2344 128.844C38.6615 128.385 37.8802 128.156 36.8906 128.156C36.2344 128.156 35.6302 128.297 35.0781 128.578C34.526 128.849 34.0521 129.255 33.6562 129.797C33.2604 130.339 32.9531 131 32.7344 131.781C32.5156 132.562 32.4062 133.464 32.4062 134.484V135.141C32.4062 135.943 32.5156 136.698 32.7344 137.406C32.9635 138.104 33.2917 138.719 33.7188 139.25C34.1562 139.781 34.6823 140.198 35.2969 140.5C35.9219 140.802 36.6302 140.953 37.4219 140.953C38.4427 140.953 39.3073 140.745 40.0156 140.328C40.724 139.911 41.3438 139.354 41.875 138.656L43.625 140.047C43.2604 140.599 42.7969 141.125 42.2344 141.625C41.6719 142.125 40.9792 142.531 40.1562 142.844C39.3438 143.156 38.3802 143.312 37.2656 143.312ZM57.1875 140.109V131.406C57.1875 130.74 57.0521 130.161 56.7812 129.672C56.5208 129.172 56.125 128.786 55.5938 128.516C55.0625 128.245 54.4062 128.109 53.625 128.109C52.8958 128.109 52.2552 128.234 51.7031 128.484C51.1615 128.734 50.7344 129.062 50.4219 129.469C50.1198 129.875 49.9688 130.312 49.9688 130.781H47.0781C47.0781 130.177 47.2344 129.578 47.5469 128.984C47.8594 128.391 48.3073 127.854 48.8906 127.375C49.4844 126.885 50.1927 126.5 51.0156 126.219C51.849 125.927 52.776 125.781 53.7969 125.781C55.026 125.781 56.1094 125.99 57.0469 126.406C57.9948 126.823 58.7344 127.453 59.2656 128.297C59.8073 129.13 60.0781 130.177 60.0781 131.438V139.312C60.0781 139.875 60.125 140.474 60.2188 141.109C60.3229 141.745 60.474 142.292 60.6719 142.75V143H57.6562C57.5104 142.667 57.3958 142.224 57.3125 141.672C57.2292 141.109 57.1875 140.589 57.1875 140.109ZM57.6875 132.75L57.7188 134.781H54.7969C53.974 134.781 53.2396 134.849 52.5938 134.984C51.9479 135.109 51.4062 135.302 50.9688 135.562C50.5312 135.823 50.1979 136.151 49.9688 136.547C49.7396 136.932 49.625 137.385 49.625 137.906C49.625 138.438 49.7448 138.922 49.9844 139.359C50.224 139.797 50.5833 140.146 51.0625 140.406C51.5521 140.656 52.151 140.781 52.8594 140.781C53.7448 140.781 54.526 140.594 55.2031 140.219C55.8802 139.844 56.4167 139.385 56.8125 138.844C57.2188 138.302 57.4375 137.776 57.4688 137.266L58.7031 138.656C58.6302 139.094 58.4323 139.578 58.1094 140.109C57.7865 140.641 57.3542 141.151 56.8125 141.641C56.2812 142.12 55.6458 142.521 54.9062 142.844C54.1771 143.156 53.3542 143.312 52.4375 143.312C51.2917 143.312 50.2865 143.089 49.4219 142.641C48.5677 142.193 47.901 141.594 47.4219 140.844C46.9531 140.083 46.7188 139.234 46.7188 138.297C46.7188 137.391 46.8958 136.594 47.25 135.906C47.6042 135.208 48.1146 134.63 48.7812 134.172C49.4479 133.703 50.25 133.349 51.1875 133.109C52.125 132.87 53.1719 132.75 54.3281 132.75H57.6875ZM74.4688 138.516C74.4688 138.099 74.375 137.714 74.1875 137.359C74.0104 136.995 73.6406 136.667 73.0781 136.375C72.526 136.073 71.6927 135.812 70.5781 135.594C69.6406 135.396 68.7917 135.161 68.0312 134.891C67.2812 134.62 66.6406 134.292 66.1094 133.906C65.5885 133.521 65.1875 133.068 64.9062 132.547C64.625 132.026 64.4844 131.417 64.4844 130.719C64.4844 130.052 64.6302 129.422 64.9219 128.828C65.224 128.234 65.6458 127.708 66.1875 127.25C66.7396 126.792 67.401 126.432 68.1719 126.172C68.9427 125.911 69.8021 125.781 70.75 125.781C72.1042 125.781 73.2604 126.021 74.2188 126.5C75.1771 126.979 75.9115 127.62 76.4219 128.422C76.9323 129.214 77.1875 130.094 77.1875 131.062H74.2969C74.2969 130.594 74.1562 130.141 73.875 129.703C73.6042 129.255 73.2031 128.885 72.6719 128.594C72.151 128.302 71.5104 128.156 70.75 128.156C69.9479 128.156 69.2969 128.281 68.7969 128.531C68.3073 128.771 67.9479 129.078 67.7188 129.453C67.5 129.828 67.3906 130.224 67.3906 130.641C67.3906 130.953 67.4427 131.234 67.5469 131.484C67.6615 131.724 67.8594 131.948 68.1406 132.156C68.4219 132.354 68.8177 132.542 69.3281 132.719C69.8385 132.896 70.4896 133.073 71.2812 133.25C72.6667 133.562 73.8073 133.938 74.7031 134.375C75.599 134.812 76.2656 135.349 76.7031 135.984C77.1406 136.62 77.3594 137.391 77.3594 138.297C77.3594 139.036 77.2031 139.714 76.8906 140.328C76.5885 140.943 76.1458 141.474 75.5625 141.922C74.9896 142.359 74.3021 142.703 73.5 142.953C72.7083 143.193 71.8177 143.312 70.8281 143.312C69.3385 143.312 68.0781 143.047 67.0469 142.516C66.0156 141.984 65.2344 141.297 64.7031 140.453C64.1719 139.609 63.9062 138.719 63.9062 137.781H66.8125C66.8542 138.573 67.0833 139.203 67.5 139.672C67.9167 140.13 68.4271 140.458 69.0312 140.656C69.6354 140.844 70.2344 140.938 70.8281 140.938C71.6198 140.938 72.2812 140.833 72.8125 140.625C73.3542 140.417 73.7656 140.13 74.0469 139.766C74.3281 139.401 74.4688 138.984 74.4688 138.516ZM88.1719 143.312C86.9948 143.312 85.9271 143.115 84.9688 142.719C84.0208 142.312 83.2031 141.745 82.5156 141.016C81.8385 140.286 81.3177 139.422 80.9531 138.422C80.5885 137.422 80.4062 136.328 80.4062 135.141V134.484C80.4062 133.109 80.6094 131.885 81.0156 130.812C81.4219 129.729 81.974 128.812 82.6719 128.062C83.3698 127.312 84.1615 126.745 85.0469 126.359C85.9323 125.974 86.849 125.781 87.7969 125.781C89.0052 125.781 90.0469 125.99 90.9219 126.406C91.8073 126.823 92.5312 127.406 93.0938 128.156C93.6562 128.896 94.0729 129.771 94.3438 130.781C94.6146 131.781 94.75 132.875 94.75 134.062V135.359H82.125V133H91.8594V132.781C91.8177 132.031 91.6615 131.302 91.3906 130.594C91.1302 129.885 90.7135 129.302 90.1406 128.844C89.5677 128.385 88.7865 128.156 87.7969 128.156C87.1406 128.156 86.5365 128.297 85.9844 128.578C85.4323 128.849 84.9583 129.255 84.5625 129.797C84.1667 130.339 83.8594 131 83.6406 131.781C83.4219 132.562 83.3125 133.464 83.3125 134.484V135.141C83.3125 135.943 83.4219 136.698 83.6406 137.406C83.8698 138.104 84.1979 138.719 84.625 139.25C85.0625 139.781 85.5885 140.198 86.2031 140.5C86.8281 140.802 87.5365 140.953 88.3281 140.953C89.349 140.953 90.2135 140.745 90.9219 140.328C91.6302 139.911 92.25 139.354 92.7812 138.656L94.5312 140.047C94.1667 140.599 93.7031 141.125 93.1406 141.625C92.5781 142.125 91.8854 142.531 91.0625 142.844C90.25 143.156 89.2865 143.312 88.1719 143.312ZM109.203 126.094V143H106.297V126.094H109.203ZM106.078 121.609C106.078 121.141 106.219 120.745 106.5 120.422C106.792 120.099 107.219 119.938 107.781 119.938C108.333 119.938 108.755 120.099 109.047 120.422C109.349 120.745 109.5 121.141 109.5 121.609C109.5 122.057 109.349 122.443 109.047 122.766C108.755 123.078 108.333 123.234 107.781 123.234C107.219 123.234 106.792 123.078 106.5 122.766C106.219 122.443 106.078 122.057 106.078 121.609ZM116.734 129.703V143H113.844V126.094H116.578L116.734 129.703ZM116.047 133.906L114.844 133.859C114.854 132.703 115.026 131.635 115.359 130.656C115.693 129.667 116.161 128.807 116.766 128.078C117.37 127.349 118.089 126.786 118.922 126.391C119.766 125.984 120.698 125.781 121.719 125.781C122.552 125.781 123.302 125.896 123.969 126.125C124.635 126.344 125.203 126.698 125.672 127.188C126.151 127.677 126.516 128.312 126.766 129.094C127.016 129.865 127.141 130.807 127.141 131.922V143H124.234V131.891C124.234 131.005 124.104 130.297 123.844 129.766C123.583 129.224 123.203 128.833 122.703 128.594C122.203 128.344 121.589 128.219 120.859 128.219C120.141 128.219 119.484 128.37 118.891 128.672C118.307 128.974 117.802 129.391 117.375 129.922C116.958 130.453 116.63 131.062 116.391 131.75C116.161 132.427 116.047 133.146 116.047 133.906ZM134.672 126.094V143H131.766V126.094H134.672ZM131.547 121.609C131.547 121.141 131.688 120.745 131.969 120.422C132.26 120.099 132.688 119.938 133.25 119.938C133.802 119.938 134.224 120.099 134.516 120.422C134.818 120.745 134.969 121.141 134.969 121.609C134.969 122.057 134.818 122.443 134.516 122.766C134.224 123.078 133.802 123.234 133.25 123.234C132.688 123.234 132.26 123.078 131.969 122.766C131.688 122.443 131.547 122.057 131.547 121.609ZM146.391 126.094V128.312H137.25V126.094H146.391ZM140.344 121.984H143.234V138.812C143.234 139.385 143.323 139.818 143.5 140.109C143.677 140.401 143.906 140.594 144.188 140.688C144.469 140.781 144.771 140.828 145.094 140.828C145.333 140.828 145.583 140.807 145.844 140.766C146.115 140.714 146.318 140.672 146.453 140.641L146.469 143C146.24 143.073 145.938 143.141 145.562 143.203C145.198 143.276 144.755 143.312 144.234 143.312C143.526 143.312 142.875 143.172 142.281 142.891C141.688 142.609 141.214 142.141 140.859 141.484C140.516 140.818 140.344 139.922 140.344 138.797V121.984ZM152.922 126.094V143H150.016V126.094H152.922ZM149.797 121.609C149.797 121.141 149.938 120.745 150.219 120.422C150.51 120.099 150.938 119.938 151.5 119.938C152.052 119.938 152.474 120.099 152.766 120.422C153.068 120.745 153.219 121.141 153.219 121.609C153.219 122.057 153.068 122.443 152.766 122.766C152.474 123.078 152.052 123.234 151.5 123.234C150.938 123.234 150.51 123.078 150.219 122.766C149.938 122.443 149.797 122.057 149.797 121.609ZM167.531 140.109V131.406C167.531 130.74 167.396 130.161 167.125 129.672C166.865 129.172 166.469 128.786 165.938 128.516C165.406 128.245 164.75 128.109 163.969 128.109C163.24 128.109 162.599 128.234 162.047 128.484C161.505 128.734 161.078 129.062 160.766 129.469C160.464 129.875 160.312 130.312 160.312 130.781H157.422C157.422 130.177 157.578 129.578 157.891 128.984C158.203 128.391 158.651 127.854 159.234 127.375C159.828 126.885 160.536 126.5 161.359 126.219C162.193 125.927 163.12 125.781 164.141 125.781C165.37 125.781 166.453 125.99 167.391 126.406C168.339 126.823 169.078 127.453 169.609 128.297C170.151 129.13 170.422 130.177 170.422 131.438V139.312C170.422 139.875 170.469 140.474 170.562 141.109C170.667 141.745 170.818 142.292 171.016 142.75V143H168C167.854 142.667 167.74 142.224 167.656 141.672C167.573 141.109 167.531 140.589 167.531 140.109ZM168.031 132.75L168.062 134.781H165.141C164.318 134.781 163.583 134.849 162.938 134.984C162.292 135.109 161.75 135.302 161.312 135.562C160.875 135.823 160.542 136.151 160.312 136.547C160.083 136.932 159.969 137.385 159.969 137.906C159.969 138.438 160.089 138.922 160.328 139.359C160.568 139.797 160.927 140.146 161.406 140.406C161.896 140.656 162.495 140.781 163.203 140.781C164.089 140.781 164.87 140.594 165.547 140.219C166.224 139.844 166.76 139.385 167.156 138.844C167.562 138.302 167.781 137.776 167.812 137.266L169.047 138.656C168.974 139.094 168.776 139.578 168.453 140.109C168.13 140.641 167.698 141.151 167.156 141.641C166.625 142.12 165.99 142.521 165.25 142.844C164.521 143.156 163.698 143.312 162.781 143.312C161.635 143.312 160.63 143.089 159.766 142.641C158.911 142.193 158.245 141.594 157.766 140.844C157.297 140.083 157.062 139.234 157.062 138.297C157.062 137.391 157.24 136.594 157.594 135.906C157.948 135.208 158.458 134.63 159.125 134.172C159.792 133.703 160.594 133.349 161.531 133.109C162.469 132.87 163.516 132.75 164.672 132.75H168.031ZM182.047 126.094V128.312H172.906V126.094H182.047ZM176 121.984H178.891V138.812C178.891 139.385 178.979 139.818 179.156 140.109C179.333 140.401 179.562 140.594 179.844 140.688C180.125 140.781 180.427 140.828 180.75 140.828C180.99 140.828 181.24 140.807 181.5 140.766C181.771 140.714 181.974 140.672 182.109 140.641L182.125 143C181.896 143.073 181.594 143.141 181.219 143.203C180.854 143.276 180.411 143.312 179.891 143.312C179.182 143.312 178.531 143.172 177.938 142.891C177.344 142.609 176.87 142.141 176.516 141.484C176.172 140.818 176 139.922 176 138.797V121.984ZM192.453 143.312C191.276 143.312 190.208 143.115 189.25 142.719C188.302 142.312 187.484 141.745 186.797 141.016C186.12 140.286 185.599 139.422 185.234 138.422C184.87 137.422 184.688 136.328 184.688 135.141V134.484C184.688 133.109 184.891 131.885 185.297 130.812C185.703 129.729 186.255 128.812 186.953 128.062C187.651 127.312 188.443 126.745 189.328 126.359C190.214 125.974 191.13 125.781 192.078 125.781C193.286 125.781 194.328 125.99 195.203 126.406C196.089 126.823 196.812 127.406 197.375 128.156C197.938 128.896 198.354 129.771 198.625 130.781C198.896 131.781 199.031 132.875 199.031 134.062V135.359H186.406V133H196.141V132.781C196.099 132.031 195.943 131.302 195.672 130.594C195.411 129.885 194.995 129.302 194.422 128.844C193.849 128.385 193.068 128.156 192.078 128.156C191.422 128.156 190.818 128.297 190.266 128.578C189.714 128.849 189.24 129.255 188.844 129.797C188.448 130.339 188.141 131 187.922 131.781C187.703 132.562 187.594 133.464 187.594 134.484V135.141C187.594 135.943 187.703 136.698 187.922 137.406C188.151 138.104 188.479 138.719 188.906 139.25C189.344 139.781 189.87 140.198 190.484 140.5C191.109 140.802 191.818 140.953 192.609 140.953C193.63 140.953 194.495 140.745 195.203 140.328C195.911 139.911 196.531 139.354 197.062 138.656L198.812 140.047C198.448 140.599 197.984 141.125 197.422 141.625C196.859 142.125 196.167 142.531 195.344 142.844C194.531 143.156 193.568 143.312 192.453 143.312ZM213.234 129.344V149.5H210.328V126.094H212.984L213.234 129.344ZM224.625 134.406V134.734C224.625 135.964 224.479 137.104 224.188 138.156C223.896 139.198 223.469 140.104 222.906 140.875C222.354 141.646 221.672 142.245 220.859 142.672C220.047 143.099 219.115 143.312 218.062 143.312C216.99 143.312 216.042 143.135 215.219 142.781C214.396 142.427 213.698 141.911 213.125 141.234C212.552 140.557 212.094 139.745 211.75 138.797C211.417 137.849 211.188 136.781 211.062 135.594V133.844C211.188 132.594 211.422 131.474 211.766 130.484C212.109 129.495 212.562 128.651 213.125 127.953C213.698 127.245 214.391 126.708 215.203 126.344C216.016 125.969 216.953 125.781 218.016 125.781C219.078 125.781 220.021 125.99 220.844 126.406C221.667 126.812 222.359 127.396 222.922 128.156C223.484 128.917 223.906 129.828 224.188 130.891C224.479 131.943 224.625 133.115 224.625 134.406ZM221.719 134.734V134.406C221.719 133.562 221.63 132.771 221.453 132.031C221.276 131.281 221 130.625 220.625 130.062C220.26 129.49 219.792 129.042 219.219 128.719C218.646 128.385 217.964 128.219 217.172 128.219C216.443 128.219 215.807 128.344 215.266 128.594C214.734 128.844 214.281 129.182 213.906 129.609C213.531 130.026 213.224 130.505 212.984 131.047C212.755 131.578 212.583 132.13 212.469 132.703V136.75C212.677 137.479 212.969 138.167 213.344 138.812C213.719 139.448 214.219 139.964 214.844 140.359C215.469 140.745 216.255 140.938 217.203 140.938C217.984 140.938 218.656 140.776 219.219 140.453C219.792 140.12 220.26 139.667 220.625 139.094C221 138.521 221.276 137.865 221.453 137.125C221.63 136.375 221.719 135.578 221.719 134.734ZM231.203 128.75V143H228.312V126.094H231.125L231.203 128.75ZM236.484 126L236.469 128.688C236.229 128.635 236 128.604 235.781 128.594C235.573 128.573 235.333 128.562 235.062 128.562C234.396 128.562 233.807 128.667 233.297 128.875C232.786 129.083 232.354 129.375 232 129.75C231.646 130.125 231.365 130.573 231.156 131.094C230.958 131.604 230.828 132.167 230.766 132.781L229.953 133.25C229.953 132.229 230.052 131.271 230.25 130.375C230.458 129.479 230.776 128.688 231.203 128C231.63 127.302 232.172 126.76 232.828 126.375C233.495 125.979 234.286 125.781 235.203 125.781C235.411 125.781 235.651 125.807 235.922 125.859C236.193 125.901 236.38 125.948 236.484 126ZM238.078 134.734V134.375C238.078 133.156 238.255 132.026 238.609 130.984C238.964 129.932 239.474 129.021 240.141 128.25C240.807 127.469 241.615 126.865 242.562 126.438C243.51 126 244.573 125.781 245.75 125.781C246.938 125.781 248.005 126 248.953 126.438C249.911 126.865 250.724 127.469 251.391 128.25C252.068 129.021 252.583 129.932 252.938 130.984C253.292 132.026 253.469 133.156 253.469 134.375V134.734C253.469 135.953 253.292 137.083 252.938 138.125C252.583 139.167 252.068 140.078 251.391 140.859C250.724 141.63 249.917 142.234 248.969 142.672C248.031 143.099 246.969 143.312 245.781 143.312C244.594 143.312 243.526 143.099 242.578 142.672C241.63 142.234 240.818 141.63 240.141 140.859C239.474 140.078 238.964 139.167 238.609 138.125C238.255 137.083 238.078 135.953 238.078 134.734ZM240.969 134.375V134.734C240.969 135.578 241.068 136.375 241.266 137.125C241.464 137.865 241.76 138.521 242.156 139.094C242.562 139.667 243.068 140.12 243.672 140.453C244.276 140.776 244.979 140.938 245.781 140.938C246.573 140.938 247.266 140.776 247.859 140.453C248.464 140.12 248.964 139.667 249.359 139.094C249.755 138.521 250.052 137.865 250.25 137.125C250.458 136.375 250.562 135.578 250.562 134.734V134.375C250.562 133.542 250.458 132.755 250.25 132.016C250.052 131.266 249.75 130.604 249.344 130.031C248.948 129.448 248.448 128.99 247.844 128.656C247.25 128.323 246.552 128.156 245.75 128.156C244.958 128.156 244.26 128.323 243.656 128.656C243.062 128.99 242.562 129.448 242.156 130.031C241.76 130.604 241.464 131.266 241.266 132.016C241.068 132.755 240.969 133.542 240.969 134.375ZM267.75 139.719V119H270.656V143H268L267.75 139.719ZM256.375 134.734V134.406C256.375 133.115 256.531 131.943 256.844 130.891C257.167 129.828 257.62 128.917 258.203 128.156C258.797 127.396 259.5 126.812 260.312 126.406C261.135 125.99 262.052 125.781 263.062 125.781C264.125 125.781 265.052 125.969 265.844 126.344C266.646 126.708 267.323 127.245 267.875 127.953C268.438 128.651 268.88 129.495 269.203 130.484C269.526 131.474 269.75 132.594 269.875 133.844V135.281C269.76 136.521 269.536 137.635 269.203 138.625C268.88 139.615 268.438 140.458 267.875 141.156C267.323 141.854 266.646 142.391 265.844 142.766C265.042 143.13 264.104 143.312 263.031 143.312C262.042 143.312 261.135 143.099 260.312 142.672C259.5 142.245 258.797 141.646 258.203 140.875C257.62 140.104 257.167 139.198 256.844 138.156C256.531 137.104 256.375 135.964 256.375 134.734ZM259.281 134.406V134.734C259.281 135.578 259.365 136.37 259.531 137.109C259.708 137.849 259.979 138.5 260.344 139.062C260.708 139.625 261.172 140.068 261.734 140.391C262.297 140.703 262.969 140.859 263.75 140.859C264.708 140.859 265.495 140.656 266.109 140.25C266.734 139.844 267.234 139.307 267.609 138.641C267.984 137.974 268.276 137.25 268.484 136.469V132.703C268.359 132.13 268.177 131.578 267.938 131.047C267.708 130.505 267.406 130.026 267.031 129.609C266.667 129.182 266.214 128.844 265.672 128.594C265.141 128.344 264.51 128.219 263.781 128.219C262.99 128.219 262.307 128.385 261.734 128.719C261.172 129.042 260.708 129.49 260.344 130.062C259.979 130.625 259.708 131.281 259.531 132.031C259.365 132.771 259.281 133.562 259.281 134.406ZM285.5 139.094V126.094H288.406V143H285.641L285.5 139.094ZM286.047 135.531L287.25 135.5C287.25 136.625 287.13 137.667 286.891 138.625C286.661 139.573 286.286 140.396 285.766 141.094C285.245 141.792 284.562 142.339 283.719 142.734C282.875 143.12 281.849 143.312 280.641 143.312C279.818 143.312 279.062 143.193 278.375 142.953C277.698 142.714 277.115 142.344 276.625 141.844C276.135 141.344 275.755 140.693 275.484 139.891C275.224 139.089 275.094 138.125 275.094 137V126.094H277.984V137.031C277.984 137.792 278.068 138.422 278.234 138.922C278.411 139.411 278.646 139.802 278.938 140.094C279.24 140.375 279.573 140.573 279.938 140.688C280.312 140.802 280.698 140.859 281.094 140.859C282.323 140.859 283.297 140.625 284.016 140.156C284.734 139.677 285.25 139.036 285.562 138.234C285.885 137.422 286.047 136.521 286.047 135.531ZM299.578 140.938C300.266 140.938 300.901 140.797 301.484 140.516C302.068 140.234 302.547 139.849 302.922 139.359C303.297 138.859 303.51 138.292 303.562 137.656H306.312C306.26 138.656 305.922 139.589 305.297 140.453C304.682 141.307 303.875 142 302.875 142.531C301.875 143.052 300.776 143.312 299.578 143.312C298.307 143.312 297.198 143.089 296.25 142.641C295.312 142.193 294.531 141.578 293.906 140.797C293.292 140.016 292.828 139.12 292.516 138.109C292.214 137.089 292.062 136.01 292.062 134.875V134.219C292.062 133.083 292.214 132.01 292.516 131C292.828 129.979 293.292 129.078 293.906 128.297C294.531 127.516 295.312 126.901 296.25 126.453C297.198 126.005 298.307 125.781 299.578 125.781C300.901 125.781 302.057 126.052 303.047 126.594C304.036 127.125 304.812 127.854 305.375 128.781C305.948 129.698 306.26 130.74 306.312 131.906H303.562C303.51 131.208 303.312 130.578 302.969 130.016C302.635 129.453 302.177 129.005 301.594 128.672C301.021 128.328 300.349 128.156 299.578 128.156C298.693 128.156 297.948 128.333 297.344 128.688C296.75 129.031 296.276 129.5 295.922 130.094C295.578 130.677 295.328 131.328 295.172 132.047C295.026 132.755 294.953 133.479 294.953 134.219V134.875C294.953 135.615 295.026 136.344 295.172 137.062C295.318 137.781 295.562 138.432 295.906 139.016C296.26 139.599 296.734 140.068 297.328 140.422C297.932 140.766 298.682 140.938 299.578 140.938ZM316.641 126.094V128.312H307.5V126.094H316.641ZM310.594 121.984H313.484V138.812C313.484 139.385 313.573 139.818 313.75 140.109C313.927 140.401 314.156 140.594 314.438 140.688C314.719 140.781 315.021 140.828 315.344 140.828C315.583 140.828 315.833 140.807 316.094 140.766C316.365 140.714 316.568 140.672 316.703 140.641L316.719 143C316.49 143.073 316.188 143.141 315.812 143.203C315.448 143.276 315.005 143.312 314.484 143.312C313.776 143.312 313.125 143.172 312.531 142.891C311.938 142.609 311.464 142.141 311.109 141.484C310.766 140.818 310.594 139.922 310.594 138.797V121.984ZM323.172 126.094V143H320.266V126.094H323.172ZM320.047 121.609C320.047 121.141 320.188 120.745 320.469 120.422C320.76 120.099 321.188 119.938 321.75 119.938C322.302 119.938 322.724 120.099 323.016 120.422C323.318 120.745 323.469 121.141 323.469 121.609C323.469 122.057 323.318 122.443 323.016 122.766C322.724 123.078 322.302 123.234 321.75 123.234C321.188 123.234 320.76 123.078 320.469 122.766C320.188 122.443 320.047 122.057 320.047 121.609ZM327.047 134.734V134.375C327.047 133.156 327.224 132.026 327.578 130.984C327.932 129.932 328.443 129.021 329.109 128.25C329.776 127.469 330.583 126.865 331.531 126.438C332.479 126 333.542 125.781 334.719 125.781C335.906 125.781 336.974 126 337.922 126.438C338.88 126.865 339.693 127.469 340.359 128.25C341.036 129.021 341.552 129.932 341.906 130.984C342.26 132.026 342.438 133.156 342.438 134.375V134.734C342.438 135.953 342.26 137.083 341.906 138.125C341.552 139.167 341.036 140.078 340.359 140.859C339.693 141.63 338.885 142.234 337.938 142.672C337 143.099 335.938 143.312 334.75 143.312C333.562 143.312 332.495 143.099 331.547 142.672C330.599 142.234 329.786 141.63 329.109 140.859C328.443 140.078 327.932 139.167 327.578 138.125C327.224 137.083 327.047 135.953 327.047 134.734ZM329.938 134.375V134.734C329.938 135.578 330.036 136.375 330.234 137.125C330.432 137.865 330.729 138.521 331.125 139.094C331.531 139.667 332.036 140.12 332.641 140.453C333.245 140.776 333.948 140.938 334.75 140.938C335.542 140.938 336.234 140.776 336.828 140.453C337.432 140.12 337.932 139.667 338.328 139.094C338.724 138.521 339.021 137.865 339.219 137.125C339.427 136.375 339.531 135.578 339.531 134.734V134.375C339.531 133.542 339.427 132.755 339.219 132.016C339.021 131.266 338.719 130.604 338.312 130.031C337.917 129.448 337.417 128.99 336.812 128.656C336.219 128.323 335.521 128.156 334.719 128.156C333.927 128.156 333.229 128.323 332.625 128.656C332.031 128.99 331.531 129.448 331.125 130.031C330.729 130.604 330.432 131.266 330.234 132.016C330.036 132.755 329.938 133.542 329.938 134.375ZM348.953 129.703V143H346.062V126.094H348.797L348.953 129.703ZM348.266 133.906L347.062 133.859C347.073 132.703 347.245 131.635 347.578 130.656C347.911 129.667 348.38 128.807 348.984 128.078C349.589 127.349 350.307 126.786 351.141 126.391C351.984 125.984 352.917 125.781 353.938 125.781C354.771 125.781 355.521 125.896 356.188 126.125C356.854 126.344 357.422 126.698 357.891 127.188C358.37 127.677 358.734 128.312 358.984 129.094C359.234 129.865 359.359 130.807 359.359 131.922V143H356.453V131.891C356.453 131.005 356.323 130.297 356.062 129.766C355.802 129.224 355.422 128.833 354.922 128.594C354.422 128.344 353.807 128.219 353.078 128.219C352.359 128.219 351.703 128.37 351.109 128.672C350.526 128.974 350.021 129.391 349.594 129.922C349.177 130.453 348.849 131.062 348.609 131.75C348.38 132.427 348.266 133.146 348.266 133.906ZM381.656 140.109V131.406C381.656 130.74 381.521 130.161 381.25 129.672C380.99 129.172 380.594 128.786 380.062 128.516C379.531 128.245 378.875 128.109 378.094 128.109C377.365 128.109 376.724 128.234 376.172 128.484C375.63 128.734 375.203 129.062 374.891 129.469C374.589 129.875 374.438 130.312 374.438 130.781H371.547C371.547 130.177 371.703 129.578 372.016 128.984C372.328 128.391 372.776 127.854 373.359 127.375C373.953 126.885 374.661 126.5 375.484 126.219C376.318 125.927 377.245 125.781 378.266 125.781C379.495 125.781 380.578 125.99 381.516 126.406C382.464 126.823 383.203 127.453 383.734 128.297C384.276 129.13 384.547 130.177 384.547 131.438V139.312C384.547 139.875 384.594 140.474 384.688 141.109C384.792 141.745 384.943 142.292 385.141 142.75V143H382.125C381.979 142.667 381.865 142.224 381.781 141.672C381.698 141.109 381.656 140.589 381.656 140.109ZM382.156 132.75L382.188 134.781H379.266C378.443 134.781 377.708 134.849 377.062 134.984C376.417 135.109 375.875 135.302 375.438 135.562C375 135.823 374.667 136.151 374.438 136.547C374.208 136.932 374.094 137.385 374.094 137.906C374.094 138.438 374.214 138.922 374.453 139.359C374.693 139.797 375.052 140.146 375.531 140.406C376.021 140.656 376.62 140.781 377.328 140.781C378.214 140.781 378.995 140.594 379.672 140.219C380.349 139.844 380.885 139.385 381.281 138.844C381.688 138.302 381.906 137.776 381.938 137.266L383.172 138.656C383.099 139.094 382.901 139.578 382.578 140.109C382.255 140.641 381.823 141.151 381.281 141.641C380.75 142.12 380.115 142.521 379.375 142.844C378.646 143.156 377.823 143.312 376.906 143.312C375.76 143.312 374.755 143.089 373.891 142.641C373.036 142.193 372.37 141.594 371.891 140.844C371.422 140.083 371.188 139.234 371.188 138.297C371.188 137.391 371.365 136.594 371.719 135.906C372.073 135.208 372.583 134.63 373.25 134.172C373.917 133.703 374.719 133.349 375.656 133.109C376.594 132.87 377.641 132.75 378.797 132.75H382.156ZM398.938 138.516C398.938 138.099 398.844 137.714 398.656 137.359C398.479 136.995 398.109 136.667 397.547 136.375C396.995 136.073 396.161 135.812 395.047 135.594C394.109 135.396 393.26 135.161 392.5 134.891C391.75 134.62 391.109 134.292 390.578 133.906C390.057 133.521 389.656 133.068 389.375 132.547C389.094 132.026 388.953 131.417 388.953 130.719C388.953 130.052 389.099 129.422 389.391 128.828C389.693 128.234 390.115 127.708 390.656 127.25C391.208 126.792 391.87 126.432 392.641 126.172C393.411 125.911 394.271 125.781 395.219 125.781C396.573 125.781 397.729 126.021 398.688 126.5C399.646 126.979 400.38 127.62 400.891 128.422C401.401 129.214 401.656 130.094 401.656 131.062H398.766C398.766 130.594 398.625 130.141 398.344 129.703C398.073 129.255 397.672 128.885 397.141 128.594C396.62 128.302 395.979 128.156 395.219 128.156C394.417 128.156 393.766 128.281 393.266 128.531C392.776 128.771 392.417 129.078 392.188 129.453C391.969 129.828 391.859 130.224 391.859 130.641C391.859 130.953 391.911 131.234 392.016 131.484C392.13 131.724 392.328 131.948 392.609 132.156C392.891 132.354 393.286 132.542 393.797 132.719C394.307 132.896 394.958 133.073 395.75 133.25C397.135 133.562 398.276 133.938 399.172 134.375C400.068 134.812 400.734 135.349 401.172 135.984C401.609 136.62 401.828 137.391 401.828 138.297C401.828 139.036 401.672 139.714 401.359 140.328C401.057 140.943 400.615 141.474 400.031 141.922C399.458 142.359 398.771 142.703 397.969 142.953C397.177 143.193 396.286 143.312 395.297 143.312C393.807 143.312 392.547 143.047 391.516 142.516C390.484 141.984 389.703 141.297 389.172 140.453C388.641 139.609 388.375 138.719 388.375 137.781H391.281C391.323 138.573 391.552 139.203 391.969 139.672C392.385 140.13 392.896 140.458 393.5 140.656C394.104 140.844 394.703 140.938 395.297 140.938C396.089 140.938 396.75 140.833 397.281 140.625C397.823 140.417 398.234 140.13 398.516 139.766C398.797 139.401 398.938 138.984 398.938 138.516ZM416.453 129.344V149.5H413.547V126.094H416.203L416.453 129.344ZM427.844 134.406V134.734C427.844 135.964 427.698 137.104 427.406 138.156C427.115 139.198 426.688 140.104 426.125 140.875C425.573 141.646 424.891 142.245 424.078 142.672C423.266 143.099 422.333 143.312 421.281 143.312C420.208 143.312 419.26 143.135 418.438 142.781C417.615 142.427 416.917 141.911 416.344 141.234C415.771 140.557 415.312 139.745 414.969 138.797C414.635 137.849 414.406 136.781 414.281 135.594V133.844C414.406 132.594 414.641 131.474 414.984 130.484C415.328 129.495 415.781 128.651 416.344 127.953C416.917 127.245 417.609 126.708 418.422 126.344C419.234 125.969 420.172 125.781 421.234 125.781C422.297 125.781 423.24 125.99 424.062 126.406C424.885 126.812 425.578 127.396 426.141 128.156C426.703 128.917 427.125 129.828 427.406 130.891C427.698 131.943 427.844 133.115 427.844 134.406ZM424.938 134.734V134.406C424.938 133.562 424.849 132.771 424.672 132.031C424.495 131.281 424.219 130.625 423.844 130.062C423.479 129.49 423.01 129.042 422.438 128.719C421.865 128.385 421.182 128.219 420.391 128.219C419.661 128.219 419.026 128.344 418.484 128.594C417.953 128.844 417.5 129.182 417.125 129.609C416.75 130.026 416.443 130.505 416.203 131.047C415.974 131.578 415.802 132.13 415.688 132.703V136.75C415.896 137.479 416.188 138.167 416.562 138.812C416.938 139.448 417.438 139.964 418.062 140.359C418.688 140.745 419.474 140.938 420.422 140.938C421.203 140.938 421.875 140.776 422.438 140.453C423.01 140.12 423.479 139.667 423.844 139.094C424.219 138.521 424.495 137.865 424.672 137.125C424.849 136.375 424.938 135.578 424.938 134.734ZM438.547 143.312C437.37 143.312 436.302 143.115 435.344 142.719C434.396 142.312 433.578 141.745 432.891 141.016C432.214 140.286 431.693 139.422 431.328 138.422C430.964 137.422 430.781 136.328 430.781 135.141V134.484C430.781 133.109 430.984 131.885 431.391 130.812C431.797 129.729 432.349 128.812 433.047 128.062C433.745 127.312 434.536 126.745 435.422 126.359C436.307 125.974 437.224 125.781 438.172 125.781C439.38 125.781 440.422 125.99 441.297 126.406C442.182 126.823 442.906 127.406 443.469 128.156C444.031 128.896 444.448 129.771 444.719 130.781C444.99 131.781 445.125 132.875 445.125 134.062V135.359H432.5V133H442.234V132.781C442.193 132.031 442.036 131.302 441.766 130.594C441.505 129.885 441.089 129.302 440.516 128.844C439.943 128.385 439.161 128.156 438.172 128.156C437.516 128.156 436.911 128.297 436.359 128.578C435.807 128.849 435.333 129.255 434.938 129.797C434.542 130.339 434.234 131 434.016 131.781C433.797 132.562 433.688 133.464 433.688 134.484V135.141C433.688 135.943 433.797 136.698 434.016 137.406C434.245 138.104 434.573 138.719 435 139.25C435.438 139.781 435.964 140.198 436.578 140.5C437.203 140.802 437.911 140.953 438.703 140.953C439.724 140.953 440.589 140.745 441.297 140.328C442.005 139.911 442.625 139.354 443.156 138.656L444.906 140.047C444.542 140.599 444.078 141.125 443.516 141.625C442.953 142.125 442.26 142.531 441.438 142.844C440.625 143.156 439.661 143.312 438.547 143.312ZM451.391 128.75V143H448.5V126.094H451.312L451.391 128.75ZM456.672 126L456.656 128.688C456.417 128.635 456.188 128.604 455.969 128.594C455.76 128.573 455.521 128.562 455.25 128.562C454.583 128.562 453.995 128.667 453.484 128.875C452.974 129.083 452.542 129.375 452.188 129.75C451.833 130.125 451.552 130.573 451.344 131.094C451.146 131.604 451.016 132.167 450.953 132.781L450.141 133.25C450.141 132.229 450.24 131.271 450.438 130.375C450.646 129.479 450.964 128.688 451.391 128C451.818 127.302 452.359 126.76 453.016 126.375C453.682 125.979 454.474 125.781 455.391 125.781C455.599 125.781 455.839 125.807 456.109 125.859C456.38 125.901 456.568 125.948 456.672 126ZM470.172 129.344V149.5H467.266V126.094H469.922L470.172 129.344ZM481.562 134.406V134.734C481.562 135.964 481.417 137.104 481.125 138.156C480.833 139.198 480.406 140.104 479.844 140.875C479.292 141.646 478.609 142.245 477.797 142.672C476.984 143.099 476.052 143.312 475 143.312C473.927 143.312 472.979 143.135 472.156 142.781C471.333 142.427 470.635 141.911 470.062 141.234C469.49 140.557 469.031 139.745 468.688 138.797C468.354 137.849 468.125 136.781 468 135.594V133.844C468.125 132.594 468.359 131.474 468.703 130.484C469.047 129.495 469.5 128.651 470.062 127.953C470.635 127.245 471.328 126.708 472.141 126.344C472.953 125.969 473.891 125.781 474.953 125.781C476.016 125.781 476.958 125.99 477.781 126.406C478.604 126.812 479.297 127.396 479.859 128.156C480.422 128.917 480.844 129.828 481.125 130.891C481.417 131.943 481.562 133.115 481.562 134.406ZM478.656 134.734V134.406C478.656 133.562 478.568 132.771 478.391 132.031C478.214 131.281 477.938 130.625 477.562 130.062C477.198 129.49 476.729 129.042 476.156 128.719C475.583 128.385 474.901 128.219 474.109 128.219C473.38 128.219 472.745 128.344 472.203 128.594C471.672 128.844 471.219 129.182 470.844 129.609C470.469 130.026 470.161 130.505 469.922 131.047C469.693 131.578 469.521 132.13 469.406 132.703V136.75C469.615 137.479 469.906 138.167 470.281 138.812C470.656 139.448 471.156 139.964 471.781 140.359C472.406 140.745 473.193 140.938 474.141 140.938C474.922 140.938 475.594 140.776 476.156 140.453C476.729 140.12 477.198 139.667 477.562 139.094C477.938 138.521 478.214 137.865 478.391 137.125C478.568 136.375 478.656 135.578 478.656 134.734ZM488.391 119V143H485.484V119H488.391ZM503 140.109V131.406C503 130.74 502.865 130.161 502.594 129.672C502.333 129.172 501.938 128.786 501.406 128.516C500.875 128.245 500.219 128.109 499.438 128.109C498.708 128.109 498.068 128.234 497.516 128.484C496.974 128.734 496.547 129.062 496.234 129.469C495.932 129.875 495.781 130.312 495.781 130.781H492.891C492.891 130.177 493.047 129.578 493.359 128.984C493.672 128.391 494.12 127.854 494.703 127.375C495.297 126.885 496.005 126.5 496.828 126.219C497.661 125.927 498.589 125.781 499.609 125.781C500.839 125.781 501.922 125.99 502.859 126.406C503.807 126.823 504.547 127.453 505.078 128.297C505.62 129.13 505.891 130.177 505.891 131.438V139.312C505.891 139.875 505.938 140.474 506.031 141.109C506.135 141.745 506.286 142.292 506.484 142.75V143H503.469C503.323 142.667 503.208 142.224 503.125 141.672C503.042 141.109 503 140.589 503 140.109ZM503.5 132.75L503.531 134.781H500.609C499.786 134.781 499.052 134.849 498.406 134.984C497.76 135.109 497.219 135.302 496.781 135.562C496.344 135.823 496.01 136.151 495.781 136.547C495.552 136.932 495.438 137.385 495.438 137.906C495.438 138.438 495.557 138.922 495.797 139.359C496.036 139.797 496.396 140.146 496.875 140.406C497.365 140.656 497.964 140.781 498.672 140.781C499.557 140.781 500.339 140.594 501.016 140.219C501.693 139.844 502.229 139.385 502.625 138.844C503.031 138.302 503.25 137.776 503.281 137.266L504.516 138.656C504.443 139.094 504.245 139.578 503.922 140.109C503.599 140.641 503.167 141.151 502.625 141.641C502.094 142.12 501.458 142.521 500.719 142.844C499.99 143.156 499.167 143.312 498.25 143.312C497.104 143.312 496.099 143.089 495.234 142.641C494.38 142.193 493.714 141.594 493.234 140.844C492.766 140.083 492.531 139.234 492.531 138.297C492.531 137.391 492.708 136.594 493.062 135.906C493.417 135.208 493.927 134.63 494.594 134.172C495.26 133.703 496.062 133.349 497 133.109C497.938 132.87 498.984 132.75 500.141 132.75H503.5ZM513.328 129.703V143H510.438V126.094H513.172L513.328 129.703ZM512.641 133.906L511.438 133.859C511.448 132.703 511.62 131.635 511.953 130.656C512.286 129.667 512.755 128.807 513.359 128.078C513.964 127.349 514.682 126.786 515.516 126.391C516.359 125.984 517.292 125.781 518.312 125.781C519.146 125.781 519.896 125.896 520.562 126.125C521.229 126.344 521.797 126.698 522.266 127.188C522.745 127.677 523.109 128.312 523.359 129.094C523.609 129.865 523.734 130.807 523.734 131.922V143H520.828V131.891C520.828 131.005 520.698 130.297 520.438 129.766C520.177 129.224 519.797 128.833 519.297 128.594C518.797 128.344 518.182 128.219 517.453 128.219C516.734 128.219 516.078 128.37 515.484 128.672C514.901 128.974 514.396 129.391 513.969 129.922C513.552 130.453 513.224 131.062 512.984 131.75C512.755 132.427 512.641 133.146 512.641 133.906Z" fill="#979797"/>
<path d="M265.058 0C258.767 0 253.237 3.22128 249.924 8.08155C245.346 4.68098 239.682 2.63966 233.56 2.63966C218.355 2.63966 206 15.0601 206 30.3468C206 37.3133 208.583 43.665 212.808 48.5288C212.654 49.4902 212.562 50.4516 212.562 51.456C212.562 56.4862 214.557 61.0679 217.812 64.4021V92.3562H212.317C211.629 92.4206 211.063 93.108 211.127 93.7992C211.191 94.4903 211.875 95.0602 212.562 94.9949H249.311C250.004 95.0078 250.641 94.3718 250.641 93.676C250.641 92.9794 250.004 92.347 249.311 92.3562H244.061V64.402C247.316 61.0676 249.311 56.4859 249.311 51.456C249.311 51.0461 249.296 50.6637 249.269 50.2603L260.548 36.3655C261.996 36.735 263.498 36.9427 265.059 36.9427C267.161 36.9427 269.165 36.5677 271.047 35.9124L302.587 50.013C303.201 50.2943 304.012 50.0002 304.309 49.3945L307.139 43.7044L316.982 48.6517C317.601 49.0616 318.553 48.8006 318.881 48.1315C319.208 47.4615 318.831 46.5443 318.13 46.3016L308.287 41.3543L310.871 36.2011C311.141 35.6478 310.957 34.9125 310.461 34.5523C310.461 34.5523 282.932 14.055 282.859 14.0199C280.866 5.9871 273.659 0.00216486 265.06 0.00216486L265.058 0ZM265.058 2.63871C273.771 2.63871 280.806 9.71113 280.806 18.4708C280.806 27.2304 273.771 34.3028 265.058 34.3028C256.344 34.3028 249.309 27.2304 249.309 18.4708C249.309 9.71113 256.344 2.63871 265.058 2.63871ZM233.56 5.27743C239.211 5.27743 244.392 7.17166 248.572 10.349C247.366 12.8065 246.685 15.5509 246.685 18.471C246.685 19.4618 246.782 20.4498 246.931 21.3982C246.931 21.3982 232.667 33.0476 232.617 33.1073C232.066 33.0568 231.5 32.9842 230.936 32.9842C222.938 32.9842 216.146 38.1687 213.629 45.3531C210.483 41.1657 208.625 36.0043 208.625 30.3455C208.625 16.4858 219.774 5.27827 233.562 5.27827L233.56 5.27743ZM283.392 17.6877L308 36.0352L302.504 47.0854L274.205 34.4692C279.702 31.2735 283.433 25.3023 283.433 18.4717C283.433 18.2024 283.404 17.9543 283.392 17.6887L283.392 17.6877ZM247.629 24.2435C249.293 29.3103 253.072 33.4335 257.924 35.4995L248.696 46.7555C247.047 40.4755 242.177 35.5548 235.982 33.768L247.629 24.2435ZM230.937 35.6225C239.651 35.6225 246.686 42.6957 246.686 51.4546C246.686 60.2142 239.651 67.2867 230.937 67.2867C222.223 67.2867 215.188 60.2142 215.188 51.4546C215.188 42.695 222.223 35.6225 230.937 35.6225ZM220.438 66.6283C223.418 68.7229 227.033 69.927 230.937 69.927C234.842 69.927 238.457 68.723 241.436 66.6283V92.3567H220.437L220.438 66.6283Z" fill="#979797"/>
</svg>
