<svg width="182" height="28" viewBox="0 0 182 28" fill="none" xmlns="http://www.w3.org/2000/svg">
<g clip-path="url(#clip0_15486_35910)">
<path d="M35.6514 2.89375C36.1374 3.30588 36.592 3.75299 37.0115 4.23144C42.3724 4.0835 46.3097 5.35194 47.2917 7.74404C48.0289 9.5444 46.9739 11.8358 44.616 14.2184C44.3675 13.9716 44.0684 13.7805 43.7389 13.6582C43.2417 13.4729 42.6979 13.4493 42.1862 13.5906C41.6745 13.732 41.2216 14.0311 40.8931 14.4445C40.5645 14.858 40.3774 15.3643 40.3589 15.8901C40.3403 16.4159 40.4913 16.9339 40.7899 17.3691C39.9827 17.9293 39.1162 18.4822 38.1904 19.0278C38.111 19.1568 38.0284 19.2796 37.9426 19.4055C39.0294 18.8421 40.0717 18.2692 41.0536 17.687C41.4588 18.1074 42.0006 18.3732 42.5839 18.4376C43.1671 18.5019 43.7546 18.3608 44.2434 18.039C44.7321 17.7172 45.0908 17.2352 45.2565 16.6776C45.4223 16.12 45.3845 15.5223 45.1498 14.9896C49.9705 11.4329 52.4969 7.88567 51.4578 5.35509C50.1898 2.26111 43.9137 1.48368 35.6514 2.89375Z" fill="#171C8F"/>
<path d="M31.6635 1.92121C30.1766 1.36453 28.5936 1.10345 27.0048 1.15288C25.4161 1.20231 23.8527 1.56128 22.404 2.20928C20.9554 2.85728 19.6498 3.78162 18.5619 4.92949C17.474 6.07737 16.6251 7.42629 16.0636 8.8992C15.848 9.46596 15.6748 10.0477 15.5456 10.6398C18.7552 8.77959 20.9956 7.70314 22.5209 7.13345C22.3368 6.46498 22.4207 5.75188 22.7552 5.14328C23.0896 4.53469 23.6487 4.07773 24.3154 3.86797C24.9822 3.6582 25.705 3.71188 26.3327 4.01777C26.9604 4.32367 27.4444 4.85809 27.6835 5.50928C27.9226 6.16046 27.8982 6.87798 27.6155 7.51179C27.3328 8.14559 26.8136 8.64659 26.1665 8.91001C25.5195 9.17343 24.7947 9.17887 24.1437 8.92521C23.4926 8.67154 22.9659 8.1784 22.6735 7.54892C20.0137 8.78177 17.5373 10.3703 15.3137 12.2702C15.1764 14.1546 15.4899 16.0445 16.2287 17.7864C16.9675 19.5283 18.1107 21.0729 19.5656 22.2949C19.8251 22.0165 20.1743 21.8361 20.5534 21.7847C20.9324 21.7333 21.3178 21.814 21.6434 22.013C21.9689 22.212 22.2146 22.5169 22.3381 22.8755C22.4617 23.2342 22.4556 23.6242 22.3207 23.9788C22.313 23.9929 22.3067 24.0077 22.3017 24.0229C22.5654 24.1425 22.8355 24.2589 23.112 24.3628C26.1153 25.486 29.4461 25.3815 32.3717 24.0723C35.2972 22.763 37.5778 20.3564 38.7118 17.3817C39.8458 14.407 39.7403 11.108 38.4185 8.21033C37.0967 5.3127 34.6668 3.05383 31.6635 1.93065V1.92121Z" fill="#171C8F"/>
<path d="M23.8943 24.8129C23.298 24.6849 22.7109 24.5177 22.137 24.3124C21.9118 24.6405 21.5734 24.876 21.1854 24.9748C20.7974 25.0736 20.3864 25.0288 20.0293 24.8489C19.6723 24.669 19.3937 24.3663 19.2459 23.9975C19.098 23.6287 19.091 23.2192 19.2261 22.8457C17.7039 21.8464 16.4155 20.5358 15.4474 19.0021C14.4794 17.4684 13.8543 15.7471 13.6141 13.954C10.5031 17.4351 9.26373 21.1586 10.7827 23.6735C11.9013 25.521 14.3101 26.374 17.3195 26.2701C10.9321 27.0822 6.10182 26.1568 4.99912 23.4689C3.79791 20.5449 7.33798 15.896 13.5252 11.8767C13.5466 11.3766 13.5997 10.8783 13.6841 10.3848C4.43983 15.1847 -1.25162 20.8187 0.232415 24.4005C1.90076 28.4671 12.2 28.5363 24.3043 24.8978L24.174 24.8727C24.0818 24.8569 24.0087 24.838 23.8943 24.8129Z" fill="#171C8F"/>
<path d="M60.7909 4.4519H55.0264V21.5554H60.7909V4.4519Z" fill="#171C8F"/>
<path d="M75.9276 10.3597C74.6564 9.25594 72.7127 8.70303 70.0963 8.70093C67.4799 8.69884 65.5489 9.25174 64.3032 10.3597C63.032 11.4676 62.3965 13.1011 62.3965 15.2603C62.3965 17.4195 63.032 19.053 64.3032 20.1609C65.5743 21.2647 67.5096 21.8176 70.109 21.8197C72.7085 21.8218 74.6564 21.2689 75.953 20.1609C77.2241 19.053 77.8597 17.4195 77.8597 15.2603C77.8597 13.1011 77.2156 11.4676 75.9276 10.3597ZM71.5263 17.1457C71.3488 17.3405 71.1282 17.4921 70.8818 17.5887C70.6355 17.6854 70.3699 17.7244 70.1058 17.7028C69.8474 17.7238 69.5877 17.6843 69.3475 17.5876C69.1074 17.4908 68.8936 17.3394 68.7235 17.1457C68.429 16.7742 68.2818 16.1448 68.2818 15.2572C68.2818 14.3696 68.429 13.7401 68.7235 13.3687C68.8936 13.1749 69.1074 13.0235 69.3475 12.9267C69.5877 12.83 69.8474 12.7905 70.1058 12.8116C70.3699 12.7899 70.6355 12.829 70.8818 12.9256C71.1282 13.0222 71.3488 13.1738 71.5263 13.3687C71.8271 13.7401 71.9786 14.3696 71.9807 15.2572C71.9829 16.1448 71.8314 16.7742 71.5263 17.1457Z" fill="#171C8F"/>
<path d="M74.7578 8.62233H79.3688V21.5554H85.1333V8.62233H89.7729V4.4519H74.7578V8.62233Z" fill="#171C8F"/>
<path d="M99.1982 21.5553C97.0309 21.5553 95.2885 21.2804 93.9707 20.7306V18.2567C94.7531 18.5438 95.5576 18.768 96.3763 18.9271C97.2192 19.0981 98.0773 19.1846 98.9376 19.1852C100.272 19.1852 101.273 19.031 101.941 18.7225C102.608 18.4078 102.942 17.794 102.942 16.8655C102.967 16.3771 102.82 15.8952 102.525 15.5027C102.15 15.0949 101.677 14.7883 101.149 14.6119C100.282 14.2957 99.3962 14.0339 98.4959 13.8282C96.6952 13.3645 95.4293 12.7759 94.6984 12.0624C93.9676 11.349 93.6042 10.366 93.6085 9.11325C93.5794 8.45622 93.7106 7.80193 93.9911 7.20582C94.2716 6.6097 94.693 6.08932 95.2196 5.68878C96.2937 4.86414 97.8974 4.45182 100.031 4.45182C100.949 4.44787 101.866 4.51734 102.773 4.65956C103.457 4.75369 104.132 4.90854 104.788 5.12224V7.59302C103.391 7.08179 101.911 6.82895 100.422 6.84706C99.1717 6.84706 98.2004 7.01073 97.5076 7.33807C96.8149 7.65282 96.4685 8.25713 96.4685 9.11325C96.4477 9.5461 96.5754 9.97317 96.8308 10.325C97.1748 10.6992 97.6137 10.9753 98.1019 11.1245C98.6993 11.349 99.5276 11.5977 100.587 11.8705C101.703 12.1161 102.774 12.529 103.765 13.0948C104.441 13.4836 104.992 14.0544 105.354 14.741C105.665 15.406 105.821 16.1324 105.808 16.8655C105.837 17.5273 105.703 18.1862 105.418 18.7854C105.133 19.3846 104.705 19.9063 104.171 20.3057C103.074 21.1409 101.416 21.5574 99.1982 21.5553Z" fill="#171C8F"/>
<path d="M108.561 21.2972V4.70996H116.016C117.121 4.66637 118.218 4.91516 119.193 5.43074C119.998 5.88446 120.643 6.57231 121.04 7.40106C121.448 8.28981 121.652 9.25738 121.637 10.2338C121.637 11.8831 121.121 13.205 120.09 14.1996C119.058 15.1942 117.667 15.6926 115.917 15.6947H111.395V21.2846L108.561 21.2972ZM111.395 13.4915H115.399C116.527 13.4915 117.376 13.2019 117.941 12.6165C118.236 12.2976 118.464 11.9239 118.611 11.5169C118.759 11.11 118.822 10.6781 118.799 10.2464C118.799 9.18255 118.526 8.35895 117.98 7.77562C117.433 7.19018 116.616 6.89746 115.523 6.89746H111.392L111.395 13.4915Z" fill="#171C8F"/>
<path d="M121.328 21.2972L127.725 4.70996H130.903L137.258 21.2972H134.344L132.682 17.0198H125.93L124.277 21.2972H121.328ZM126.371 14.8575H132.196L129.285 7.25943L126.371 14.8575Z" fill="#171C8F"/>
<path d="M146.449 21.5554C143.695 21.5554 141.611 20.8084 140.195 19.3144C138.78 17.8203 138.074 15.8028 138.076 13.2617C138.035 11.6491 138.341 10.0464 138.972 8.55938C139.536 7.28353 140.497 6.21943 141.714 5.52206C142.947 4.80863 144.516 4.45191 146.421 4.45191C148.094 4.4382 149.756 4.7086 151.337 5.25138V7.69697C150.618 7.41509 149.873 7.20423 149.112 7.06748C148.294 6.9173 147.463 6.84354 146.63 6.84716C144.548 6.84716 143.079 7.39692 142.223 8.49644C141.367 9.59596 140.938 11.1844 140.936 13.2617C140.936 15.2006 141.404 16.6694 142.34 17.6682C143.277 18.667 144.724 19.1696 146.681 19.1759C147.487 19.1748 148.292 19.1095 149.087 18.9807C149.865 18.8626 150.628 18.6599 151.362 18.3764V20.8503C150.628 21.0828 149.875 21.2544 149.112 21.3634C148.231 21.4941 147.341 21.5583 146.449 21.5554Z" fill="#171C8F"/>
<path d="M154.12 21.2972V4.70996H165.795V6.89746H156.955V11.9334H164.833V14.0989H156.955V19.1349H165.795V21.2972H154.12Z" fill="#171C8F"/>
</g>
<path d="M172.893 4.8125V10.5H172.151V4.8125H172.893ZM174.721 4.8125V5.42969H170.327V4.8125H174.721ZM175.604 4.8125H176.334L178.197 9.44922L180.057 4.8125H180.791L178.479 10.5H177.908L175.604 4.8125ZM175.365 4.8125H176.01L176.115 8.28125V10.5H175.365V4.8125ZM180.381 4.8125H181.025V10.5H180.275V8.28125L180.381 4.8125Z" fill="#171C8F"/>
<defs>
<clipPath id="clip0_15486_35910">
<rect width="173.689" height="27" fill="white" transform="translate(0 0.5)"/>
</clipPath>
</defs>
</svg>
