<svg width="540" height="84" viewBox="0 0 540 84" fill="none" xmlns="http://www.w3.org/2000/svg">
<g clip-path="url(#clip0_923_11024)">
<path d="M110.98 7.43601C112.49 8.71621 113.902 10.1051 115.205 11.5912C131.858 11.1317 144.088 15.0719 147.138 22.5024C149.428 28.0949 146.151 35.2126 138.827 42.6138C138.055 41.8471 137.126 41.2536 136.102 40.8735C134.558 40.298 132.868 40.2245 131.279 40.6637C129.69 41.1029 128.283 42.0319 127.262 43.3162C126.242 44.6004 125.66 46.1732 125.603 47.8065C125.545 49.4398 126.014 51.0489 126.942 52.4006C124.434 54.1409 121.743 55.8584 118.867 57.5531C118.62 57.954 118.364 58.3353 118.097 58.7264C121.473 56.9763 124.711 55.1968 127.761 53.3881C129.02 54.6942 130.703 55.5197 132.514 55.7197C134.326 55.9196 136.151 55.4813 137.669 54.4816C139.187 53.4819 140.302 51.9847 140.816 50.2526C141.331 48.5205 141.214 46.6641 140.485 45.0092C155.46 33.9611 163.307 22.9424 160.079 15.0817C156.141 5.47083 136.645 3.0559 110.98 7.43601Z" fill="white"/>
<path d="M98.5916 4.41489C93.9729 2.68569 89.0556 1.8747 84.1204 2.02824C79.1853 2.18178 74.329 3.29684 69.829 5.30973C65.3291 7.32262 61.2736 10.1939 57.8942 13.7595C54.5149 17.3252 51.8779 21.5153 50.1339 26.0906C49.4639 27.8511 48.9261 29.6583 48.5249 31.4973C58.4948 25.7191 65.454 22.3753 70.1921 20.6057C69.6202 18.5292 69.8809 16.3141 70.9198 14.4236C71.9586 12.5331 73.6952 11.1137 75.7663 10.4621C77.8374 9.81051 80.0827 9.97724 82.0326 10.9274C83.9825 11.8776 85.4859 13.5377 86.2286 15.5605C86.9712 17.5833 86.8955 19.8121 86.0173 21.7809C85.1391 23.7497 83.5264 25.3059 81.5165 26.1242C79.5066 26.9425 77.2551 26.9594 75.2328 26.1714C73.2106 25.3834 71.5742 23.8516 70.666 21.8962C62.4039 25.7258 54.7116 30.6604 47.8043 36.5618C47.3779 42.4154 48.3517 48.2861 50.6466 53.6968C52.9415 59.1076 56.4928 63.9058 61.0119 67.7017C61.8182 66.8369 62.9029 66.2766 64.0804 66.1168C65.2578 65.9571 66.4548 66.2077 67.4662 66.8258C68.4775 67.444 69.2405 68.3912 69.6243 69.5052C70.0082 70.6192 69.9891 71.8308 69.5703 72.9324C69.5464 72.9761 69.5266 73.0219 69.511 73.0692C70.3304 73.4408 71.1694 73.8025 72.0282 74.1252C81.3574 77.6141 91.7039 77.2894 100.792 73.2226C109.879 69.1558 116.963 61.68 120.486 52.4397C124.008 43.1994 123.681 32.9517 119.575 23.9508C115.469 14.9499 107.921 7.93314 98.5916 4.44422V4.41489Z" fill="white"/>
<path d="M74.4565 75.5233C72.6041 75.1256 70.7805 74.6063 68.9977 73.9687C68.2981 74.988 67.2472 75.7195 66.0419 76.0263C64.8367 76.333 63.5598 76.194 62.4507 75.6351C61.3416 75.0762 60.4763 74.136 60.017 72.9905C59.5577 71.845 59.5359 70.5729 59.9557 69.4126C55.2273 66.3086 51.2249 62.2376 48.218 57.4734C45.211 52.7091 43.2692 47.3622 42.5232 41.7925C32.8593 52.6059 29.0095 64.1721 33.728 71.984C37.2026 77.7231 44.685 80.3727 54.033 80.05C34.1919 82.5725 19.1877 79.6981 15.7624 71.3485C12.0311 62.2656 23.0276 47.8249 42.2468 35.3396C42.3135 33.7862 42.4784 32.2384 42.7404 30.7053C14.025 45.6153 -3.65426 63.1162 0.955585 74.2425C6.13796 86.8744 38.1305 87.0895 75.7299 75.7872L75.3252 75.709C75.0389 75.6601 74.8119 75.6015 74.4565 75.5233Z" fill="white"/>
<path d="M189.071 12.2756H171.165V65.404H189.071V12.2756Z" fill="white"/>
<path d="M236.087 30.6271C232.139 27.1986 226.101 25.4811 217.974 25.4746C209.847 25.4681 203.848 27.1856 199.979 30.6271C196.03 34.0686 194.056 39.1429 194.056 45.85C194.056 52.557 196.03 57.6313 199.979 61.0728C203.927 64.5013 209.939 66.2188 218.013 66.2253C226.088 66.2318 232.139 64.5143 236.166 61.0728C240.115 57.6313 242.089 52.557 242.089 45.85C242.089 39.1429 240.089 34.0686 236.087 30.6271ZM222.416 51.7064C221.864 52.3116 221.179 52.7826 220.414 53.0828C219.649 53.3829 218.824 53.5041 218.003 53.437C217.201 53.5024 216.394 53.3798 215.648 53.0791C214.902 52.7785 214.238 52.3083 213.709 51.7064C212.795 50.5527 212.337 48.5973 212.337 45.8402C212.337 43.0831 212.795 41.1277 213.709 39.974C214.238 39.3721 214.902 38.9019 215.648 38.6012C216.394 38.3006 217.201 38.178 218.003 38.2434C218.824 38.1763 219.649 38.2975 220.414 38.5976C221.179 38.8978 221.864 39.3688 222.416 39.974C223.35 41.1277 223.821 43.0831 223.827 45.8402C223.834 48.5973 223.363 50.5527 222.416 51.7064Z" fill="white"/>
<path d="M232.455 25.2302H246.778V65.404H264.684V25.2302H279.096V12.2756H232.455V25.2302Z" fill="white"/>
<path d="M308.374 65.404C301.642 65.404 296.229 64.5502 292.136 62.8425V55.1577C294.566 56.0495 297.065 56.7459 299.609 57.2402C302.227 57.7714 304.892 58.04 307.565 58.0419C311.711 58.0419 314.82 57.5629 316.893 56.6047C318.966 55.627 320.002 53.7205 320.002 50.8363C320.082 49.3191 319.624 47.8221 318.709 46.6028C317.545 45.3361 316.074 44.3839 314.435 43.8359C311.742 42.8535 308.989 42.0404 306.193 41.4014C300.599 39.961 296.667 38.1326 294.397 35.9165C292.126 33.7004 290.998 30.6467 291.011 26.7554C290.92 24.7145 291.328 22.6821 292.199 20.8304C293.071 18.9787 294.38 17.3622 296.015 16.118C299.352 13.5564 304.334 12.2756 310.96 12.2756C313.813 12.2634 316.662 12.4792 319.479 12.9209C321.605 13.2133 323.699 13.6943 325.738 14.3582V22.0331C321.398 20.4451 316.801 19.6597 312.175 19.716C308.292 19.716 305.275 20.2244 303.123 21.2412C300.971 22.2189 299.895 24.0961 299.895 26.7554C299.83 28.1 300.227 29.4266 301.02 30.5196C302.089 31.6818 303.452 32.5394 304.969 33.003C306.824 33.7004 309.398 34.4728 312.688 35.3201C316.154 36.0833 319.483 37.3658 322.559 39.1234C324.66 40.3309 326.371 42.104 327.495 44.2368C328.463 46.3025 328.946 48.559 328.906 50.8363C328.996 52.892 328.58 54.9385 327.694 56.7999C326.809 58.6613 325.48 60.2819 323.823 61.5226C320.414 64.1167 315.264 65.4106 308.374 65.404Z" fill="white"/>
<path d="M337.455 64.6024V13.0774H360.613C364.045 12.942 367.453 13.7148 370.484 15.3164C372.984 16.7258 374.986 18.8624 376.219 21.4368C377.488 24.1975 378.122 27.2031 378.075 30.2361C378.075 35.3593 376.472 39.4656 373.267 42.5552C370.063 45.6447 365.742 47.1928 360.307 47.1993H346.26V64.5633L337.455 64.6024ZM346.26 40.3554H358.698C362.202 40.3554 364.837 39.4559 366.595 37.6373C367.51 36.647 368.217 35.486 368.675 34.2219C369.133 32.9579 369.331 31.6162 369.26 30.2752C369.26 26.9706 368.411 24.4123 366.713 22.6003C365.015 20.7817 362.478 19.8725 359.083 19.8725H346.25L346.26 40.3554Z" fill="white"/>
<path d="M377.117 64.6024L396.988 13.0774H406.859L426.602 64.6024H417.55L412.387 51.3154H391.411L386.278 64.6024H377.117ZM392.783 44.5985H410.877L401.835 20.9968L392.783 44.5985Z" fill="white"/>
<path d="M455.149 65.4041C446.594 65.4041 440.119 63.0837 435.723 58.4429C431.327 53.802 429.132 47.535 429.138 39.6416C429.012 34.6324 429.961 29.6537 431.922 25.0347C433.675 21.0716 436.659 17.7662 440.441 15.5999C444.271 13.3838 449.144 12.2757 455.06 12.2757C460.256 12.2331 465.421 13.0731 470.331 14.7591V22.3558C468.098 21.4802 465.784 20.8252 463.421 20.4004C460.879 19.9339 458.297 19.7048 455.712 19.7161C449.243 19.7161 444.679 21.4238 442.02 24.8392C439.362 28.2547 438.029 33.1888 438.022 39.6416C438.022 45.6643 439.477 50.2269 442.386 53.3295C445.294 56.4321 449.789 57.9931 455.87 58.0127C458.373 58.0093 460.872 57.8066 463.342 57.4065C465.76 57.0396 468.131 56.41 470.41 55.5293V63.2141C468.129 63.9362 465.791 64.4693 463.421 64.8077C460.683 65.2139 457.918 65.4133 455.149 65.4041Z" fill="white"/>
<path d="M478.978 64.6024V13.0774H515.245V19.8724H487.783V35.5157H512.254V42.2423H487.783V57.8855H515.245V64.6024H478.978Z" fill="white"/>
</g>
<defs>
<clipPath id="clip0_923_11024">
<rect width="539.53" height="83.87" fill="white" transform="translate(0.234985)"/>
</clipPath>
</defs>
</svg>
