<svg width="187" height="20" viewBox="0 0 187 20" fill="none" xmlns="http://www.w3.org/2000/svg">
<g clip-path="url(#clip0_301_1262)">
<path d="M10.2887 0C7.28389 2.54215 3.87849 4.59599 0.203377 6.08258L13.2606 15.1903L12.5166 15.5287L7.10191 12.0403C5.35764 10.8761 0.98871 11.7019 0.116577 13.148L10.1606 19.996C13.0993 17.3057 16.5358 15.1842 20.2872 13.7442L7.10191 4.80564L7.80044 4.25378L12.0784 7.25076C14.2195 8.74119 15.9224 9.12387 20.5063 6.91239L10.2887 0Z" fill="#9D9FA1"/>
<path fill-rule="evenodd" clip-rule="evenodd" d="M116.474 10.7231C114.511 10.425 113.68 9.31721 113.68 7.90331C113.68 5.30915 116.3 4.62839 119.619 4.62839C124.203 4.62839 126.08 5.77642 126.212 7.90331H121.496C121.492 7.72379 121.431 7.54983 121.322 7.40549C121.212 7.26116 121.059 7.15359 120.884 7.09767C120.484 6.93511 120.052 6.86215 119.619 6.88418C118.379 6.88418 118.003 7.18226 118.003 7.60522C118.003 7.90331 118.136 8.07652 118.528 8.11681L123.373 8.79757C125.439 9.09566 126.679 10.0342 126.679 11.6938C126.679 14.1108 124.613 15.2669 120.066 15.2669C116.966 15.2669 113.56 14.8399 113.519 11.9033H118.408C118.398 12.0527 118.433 12.2017 118.511 12.3311C118.588 12.4604 118.704 12.564 118.842 12.6284C119.289 12.7902 119.764 12.8628 120.239 12.8419C121.508 12.8419 121.856 12.4995 121.856 12.0362C121.856 11.7382 121.682 11.4401 121.116 11.3555L116.441 10.719L116.474 10.7231ZM67.0765 7.48841H64.2576H64.2287V9.36152H67.122C67.9073 9.36152 68.2545 9.06343 68.2545 8.42295C68.2545 7.65759 67.7337 7.48841 67.0765 7.48841ZM70.036 11.8711L73.4832 14.9768H68.3248L64.9189 11.9114H64.2204V14.9768H60.1573V4.96676H68.672C69.5082 4.92211 70.3442 5.05972 71.1189 5.36958C71.5542 5.61182 71.9139 5.96447 72.1599 6.39005C72.4059 6.81562 72.529 7.2982 72.516 7.78649C72.516 7.86933 72.5188 7.96622 72.5219 8.07431C72.554 9.18573 72.6201 11.4819 70.036 11.8711ZM36.4444 4.97884H30.7239V14.9768H34.4356V7.8308L36.618 14.9768H39.6725L41.8136 7.8308H41.8591V14.9768H45.5253V4.97884H39.8503L38.1473 10.8076L36.4444 4.97884ZM52.9302 8.05104L51.7088 11.4038H54.1516L52.9302 8.05104ZM55.3379 4.97884H50.3779L45.9965 14.9768H50.3489L50.7623 13.8288H54.9989L55.4371 14.9768H59.7027L55.3379 4.97884ZM73.7312 4.97884H77.7901V11.0211C77.7901 12.294 78.5341 12.721 79.8857 12.721C81.2373 12.721 81.9813 12.3182 81.9813 11.0211V4.97884H86.0444V11.1903C86.0444 14.3807 84.0769 15.3071 79.8899 15.3071C75.7028 15.3071 73.7312 14.3404 73.7312 11.1903V4.97884ZM86.8297 7.48841H90.5828V14.9768H94.6459V7.48841H98.3989V4.97884H86.8297V7.48841ZM103.289 4.97884H99.2297V14.9768H103.289V4.97884ZM131.846 4.97884H127.783V11.1903C127.783 14.3404 129.75 15.3192 133.941 15.3192C138.133 15.3192 140.096 14.3807 140.096 11.1903V4.97884H136.037V11.0211C136.037 12.3182 135.297 12.721 133.941 12.721C132.586 12.721 131.846 12.294 131.846 11.0211V4.97884ZM141.146 12.8499L147.3 7.48841H141.58V4.97884H152.761V7.15004L146.776 12.4673H152.628V14.9768H141.146V12.8499ZM157.911 4.97884H153.852V11.1782C153.852 14.3283 155.803 15.3071 160.006 15.3071C164.21 15.3071 166.161 14.3807 166.161 11.1903V4.97884H162.102V11.0211C162.102 12.3182 161.358 12.721 160.006 12.721C158.655 12.721 157.911 12.294 157.911 11.0211V4.97884ZM186.117 4.97884H182.058V14.9768H186.117V4.97884ZM171.84 14.9768H167.909V4.97884H171.84V8.42295L176.25 4.97884H181.181L175.246 9.8731L180.876 14.9768H175.725L171.753 11.4038L171.84 14.9768Z" fill="#171C8F"/>
</g>
<defs>
<clipPath id="clip0_301_1262">
<rect width="186" height="20" fill="white" transform="translate(0.116577)"/>
</clipPath>
</defs>
</svg>
