<svg width="316" height="34" viewBox="0 0 316 34" fill="none" xmlns="http://www.w3.org/2000/svg">
<g clip-path="url(#clip0_868_7132)">
<path d="M17.272 0C12.1699 4.32166 6.38761 7.81318 0.147384 10.3404L22.3181 25.8236L21.0548 26.3988L11.8609 20.4685C8.89917 18.4894 1.48086 19.8933 0 22.3517L17.0544 33.9931C22.0443 29.4198 27.8794 25.8131 34.2492 23.3652L11.8609 8.16959L13.047 7.23142L20.3109 12.3263C23.9464 14.86 26.8379 15.5106 34.6211 11.7511L17.272 0Z" fill="white"/>
<path fill-rule="evenodd" clip-rule="evenodd" d="M197.571 18.2292C194.238 17.7225 192.827 15.8393 192.827 13.4357C192.827 9.02559 197.277 7.86829 202.912 7.86829C210.696 7.86829 213.882 9.81995 214.107 13.4357H206.099C206.092 13.1305 205.989 12.8347 205.803 12.5894C205.617 12.344 205.357 12.1611 205.06 12.0661C204.381 11.7897 203.647 11.6657 202.912 11.7031C200.807 11.7031 200.168 12.2099 200.168 12.9289C200.168 13.4357 200.393 13.7301 201.06 13.7986L209.285 14.9559C212.794 15.4626 214.9 17.0582 214.9 19.8796C214.9 23.9883 211.39 25.9537 203.67 25.9537C198.407 25.9537 192.624 25.2278 192.553 20.2357H200.856C200.838 20.4896 200.898 20.743 201.03 20.9628C201.161 21.1827 201.357 21.3588 201.593 21.4683C202.351 21.7434 203.157 21.8669 203.965 21.8312C206.12 21.8312 206.709 21.2492 206.709 20.4616C206.709 19.9549 206.414 19.4481 205.453 19.3043L197.515 18.2224L197.571 18.2292ZM113.696 12.7303H108.91H108.86V15.9146H113.773C115.107 15.9146 115.696 15.4079 115.696 14.319C115.696 13.0179 114.812 12.7303 113.696 12.7303ZM118.721 20.1809L124.574 25.4606H115.816L110.033 20.2494H108.846V25.4606H101.947V8.44351H116.405C117.825 8.36762 119.244 8.60156 120.56 9.12831C121.299 9.54012 121.91 10.1396 122.327 10.8631C122.745 11.5866 122.954 12.407 122.932 13.2371C122.932 13.3777 122.937 13.5421 122.942 13.7255L122.942 13.7264C122.997 15.6158 123.109 19.5193 118.721 20.1809ZM61.6836 8.46406H51.9703V25.4606H58.2727V13.3124L61.9784 25.4606H67.1649L70.8004 13.3124H70.8776V25.4606H77.1028V8.46406H67.4667L64.5752 18.373L61.6836 8.46406ZM89.676 13.6868L87.6021 19.3865H91.7499L89.676 13.6868ZM93.7642 8.46406H85.3422L77.9029 25.4606H85.2931L85.9949 23.509H93.1887L93.9326 25.4606H101.175L93.7642 8.46406ZM124.995 8.46406H131.887V18.736C131.887 20.8999 133.151 21.6258 135.446 21.6258C137.741 21.6258 139.004 20.941 139.004 18.736V8.46406H145.903V19.0236C145.903 24.4471 142.562 26.0222 135.453 26.0222C128.343 26.0222 124.995 24.3787 124.995 19.0236V8.46406ZM147.236 12.7303H153.609V25.4606H160.508V12.7303H166.881V8.46406H147.236V12.7303ZM175.183 8.46406H168.291V25.4606H175.183V8.46406ZM223.672 8.46406H216.773V19.0236C216.773 24.3787 220.114 26.0427 227.231 26.0427C234.347 26.0427 237.681 24.4471 237.681 19.0236V8.46406H230.789V18.736C230.789 20.941 229.533 21.6258 227.231 21.6258C224.929 21.6258 223.672 20.8999 223.672 18.736V8.46406ZM239.464 21.8449L249.914 12.7303H240.2V8.46406H259.185V12.1551L249.022 21.1944H258.96V25.4606H239.464V21.8449ZM267.93 8.46406H261.038V19.003C261.038 24.3581 264.35 26.0222 271.488 26.0222C278.625 26.0222 281.938 24.4471 281.938 19.0236V8.46406H275.046V18.736C275.046 20.941 273.783 21.6258 271.488 21.6258C269.193 21.6258 267.93 20.8999 267.93 18.736V8.46406ZM315.822 8.46406H308.93V25.4606H315.822V8.46406ZM291.581 25.4606H284.907V8.46406H291.581V14.319L299.07 8.46406H307.443L297.364 16.7843L306.923 25.4606H298.178L291.434 19.3865L291.581 25.4606Z" fill="white"/>
</g>
<defs>
<clipPath id="clip0_868_7132">
<rect width="315.822" height="34" fill="white"/>
</clipPath>
</defs>
</svg>
