<svg width="48" height="48" viewBox="0 0 48 48" fill="none" xmlns="http://www.w3.org/2000/svg">
<g id="fi-rr-ban" clip-path="url(#clip0_5816_27515)">
<path id="Vector" d="M24 0C19.2533 0 14.6131 1.40758 10.6663 4.04473C6.71954 6.68188 3.64341 10.4302 1.8269 14.8156C0.0103989 19.201 -0.464881 24.0266 0.461164 28.6822C1.38721 33.3377 3.67299 37.6141 7.02945 40.9706C10.3859 44.327 14.6623 46.6128 19.3178 47.5388C23.9734 48.4649 28.799 47.9896 33.1844 46.1731C37.5698 44.3566 41.3181 41.2805 43.9553 37.3337C46.5924 33.3869 48 28.7468 48 24C47.9931 17.6369 45.4624 11.5364 40.963 7.03704C36.4636 2.53766 30.3631 0.00688216 24 0V0ZM24 4C28.613 3.99632 33.0839 5.5955 36.648 8.524L8.52401 36.648C6.12514 33.7197 4.60733 30.1702 4.14724 26.4129C3.68716 22.6555 4.30373 18.8447 5.92518 15.4241C7.54664 12.0035 10.1063 9.11375 13.3062 7.09129C16.5061 5.06882 20.2146 3.9968 24 4ZM24 44C19.3871 44.0037 14.9162 42.4045 11.352 39.476L39.476 11.352C41.8749 14.2803 43.3927 17.8298 43.8528 21.5871C44.3129 25.3445 43.6963 29.1553 42.0748 32.5759C40.4534 35.9965 37.8937 38.8863 34.6939 40.9087C31.494 42.9312 27.7855 44.0032 24 44Z" fill="#979797"/>
</g>
<defs>
<clipPath id="clip0_5816_27515">
<rect width="48" height="48" fill="white"/>
</clipPath>
</defs>
</svg>
