<svg width="10" height="12" viewBox="0 0 10 12" fill="none" xmlns="http://www.w3.org/2000/svg">
<g id="Sort">
<g id="Group">
<g id="Group_2">
<g id="Group_3">
<path id="Vector" d="M0.763006 3.18497C1.3949 2.4782 2.0238 1.77443 2.6557 1.06767C2.74554 0.965843 2.83539 0.867016 2.92523 0.765194C2.7126 0.765194 2.50297 0.765194 2.29034 0.765194C2.92223 1.47196 3.55113 2.17573 4.18303 2.88249C4.27287 2.98432 4.36272 3.08314 4.45256 3.18497C4.61428 3.36465 4.92274 3.34968 5.08745 3.18497C5.26714 3.00528 5.24917 2.72976 5.08745 2.55008C4.45555 1.84331 3.82665 1.13954 3.19476 0.432774C3.10491 0.330952 3.01507 0.232125 2.92523 0.130303C2.7695 -0.0433936 2.44607 -0.0433936 2.29034 0.130303C1.65844 0.837068 1.02954 1.54084 0.397644 2.2476C0.307801 2.34943 0.217958 2.44825 0.128115 2.55008C-0.0336026 2.72976 -0.0515712 3.00827 0.128115 3.18497C0.292827 3.34968 0.601288 3.36765 0.763006 3.18497Z" fill="#B8BABD"/>
</g>
</g>
<g id="Group_4">
<g id="Group_5">
<path id="Vector_2" d="M2.15826 0.561607C2.15826 1.62175 2.15826 2.6849 2.15826 3.74504C2.15826 5.43409 2.15826 7.12314 2.15826 8.81219C2.15826 9.19552 2.15826 9.58185 2.15826 9.96518C2.15826 10.1988 2.3649 10.4264 2.60748 10.4144C2.85006 10.4024 3.05669 10.2167 3.05669 9.96518C3.05669 8.90503 3.05669 7.84189 3.05669 6.78174C3.05669 5.09269 3.05669 3.40364 3.05669 1.71459C3.05669 1.33126 3.05669 0.944937 3.05669 0.561607C3.05669 0.328015 2.85006 0.100412 2.60748 0.112391C2.3649 0.12437 2.15826 0.310046 2.15826 0.561607Z" fill="#B8BABD"/>
</g>
</g>
</g>
<g id="Group_6">
<g id="Group_7">
<g id="Group_8">
<path id="Vector_3" d="M4.70941 9.44988C5.34131 10.1566 5.97021 10.8604 6.60211 11.5672C6.69195 11.669 6.78179 11.7678 6.87164 11.8697C7.02736 12.0434 7.3508 12.0434 7.50653 11.8697C8.13842 11.1629 8.76732 10.4591 9.39922 9.75235C9.48906 9.65053 9.57891 9.5517 9.66875 9.44988C9.83047 9.2702 9.84843 8.99168 9.66875 8.81499C9.50404 8.65028 9.19558 8.63231 9.03386 8.81499C8.40196 9.52176 7.77306 10.2255 7.14117 10.9323C7.05132 11.0341 6.96148 11.1329 6.87164 11.2348C7.08426 11.2348 7.2939 11.2348 7.50653 11.2348C6.87463 10.528 6.24573 9.82423 5.61383 9.11746C5.52399 9.01564 5.43415 8.91681 5.3443 8.81499C5.18259 8.6353 4.87413 8.65028 4.70941 8.81499C4.52973 8.99468 4.5477 9.2702 4.70941 9.44988Z" fill="#B8BABD"/>
</g>
</g>
<g id="Group_9">
<g id="Group_10">
<path id="Vector_4" d="M7.63958 11.4386C7.63958 10.3784 7.63958 9.31528 7.63958 8.25513C7.63958 6.56608 7.63958 4.87703 7.63958 3.18798C7.63958 2.80465 7.63958 2.41833 7.63958 2.035C7.63958 1.8014 7.43294 1.5738 7.19037 1.58578C6.94779 1.59776 6.74115 1.78343 6.74115 2.035C6.74115 3.09514 6.74115 4.15829 6.74115 5.21843C6.74115 6.90748 6.74115 8.59653 6.74115 10.2856C6.74115 10.6689 6.74115 11.0552 6.74115 11.4386C6.74115 11.6722 6.94779 11.8998 7.19037 11.8878C7.43294 11.8758 7.63958 11.6901 7.63958 11.4386Z" fill="#B8BABD"/>
</g>
</g>
</g>
</g>
</svg>
