<svg width="12" height="12" viewBox="0 0 12 12" fill="none" xmlns="http://www.w3.org/2000/svg">
<g id="Frame" clip-path="url(#clip0_0_3)">
<g id="Clip path group">
<mask id="mask0_0_3" style="mask-type:luminance" maskUnits="userSpaceOnUse" x="0" y="0" width="12" height="12">
<g id="clip0_1983_59883">
<path id="Vector" d="M0 12L12 12L12 0L0 0L0 12Z" fill="white"/>
</g>
</mask>
<g mask="url(#mask0_0_3)">
<g id="Group">
<path id="Vector_2" d="M2.97498 3.105C3.02146 3.15187 3.07676 3.18906 3.13769 3.21445C3.19862 3.23983 3.26398 3.2529 3.32998 3.2529C3.39599 3.2529 3.46134 3.23983 3.52227 3.21445C3.5832 3.18906 3.6385 3.15187 3.68498 3.105L5.49998 1.29L5.49998 11.5C5.49998 11.6326 5.55266 11.7598 5.64643 11.8536C5.7402 11.9473 5.86737 12 5.99998 12C6.13259 12 6.25977 11.9473 6.35353 11.8536C6.4473 11.7598 6.49998 11.6326 6.49998 11.5L6.49998 1.295L8.30998 3.105C8.35284 3.1636 8.40794 3.21216 8.47146 3.24731C8.53498 3.28246 8.60539 3.30336 8.6778 3.30856C8.75021 3.31375 8.82288 3.30311 8.89077 3.27738C8.95865 3.25165 9.02012 3.21145 9.0709 3.15957C9.12167 3.10769 9.16055 3.04537 9.18481 2.97695C9.20907 2.90852 9.21815 2.83564 9.2114 2.76336C9.20465 2.69108 9.18224 2.62113 9.14573 2.55838C9.10922 2.49563 9.05949 2.44159 8.99998 2.4L7.03998 0.44C6.75873 0.1591 6.37748 0.00129986 5.97998 0.00129986C5.58248 0.00129986 5.20123 0.1591 4.91998 0.44L2.95998 2.4C2.86882 2.49565 2.81923 2.6235 2.82204 2.7556C2.82485 2.8877 2.87984 3.01332 2.97498 3.105Z" fill="#171C8F"/>
</g>
</g>
</g>
</g>
<defs>
<clipPath id="clip0_0_3">
<rect width="12" height="12" fill="white" transform="matrix(-1 0 0 -1 12 12)"/>
</clipPath>
</defs>
</svg>
