<svg width="12" height="12" viewBox="0 0 12 12" fill="none" xmlns="http://www.w3.org/2000/svg">
<g id="fi-rr-arrow-down" clip-path="url(#clip0_1983_59883)">
<path id="Vector" d="M9.02502 8.895C8.97854 8.84813 8.92324 8.81094 8.86231 8.78555C8.80138 8.76017 8.73602 8.7471 8.67002 8.7471C8.60401 8.7471 8.53866 8.76017 8.47773 8.78555C8.4168 8.81094 8.3615 8.84813 8.31502 8.895L6.50002 10.71V0.5C6.50002 0.367392 6.44734 0.240215 6.35357 0.146447C6.2598 0.0526784 6.13263 0 6.00002 0V0C5.86741 0 5.74023 0.0526784 5.64647 0.146447C5.5527 0.240215 5.50002 0.367392 5.50002 0.5V10.705L3.69002 8.895C3.64716 8.8364 3.59206 8.78784 3.52854 8.75269C3.46502 8.71754 3.39461 8.69664 3.3222 8.69144C3.24979 8.68625 3.17712 8.69689 3.10923 8.72262C3.04135 8.74835 2.97988 8.78855 2.9291 8.84043C2.87833 8.89231 2.83945 8.95463 2.81519 9.02305C2.79093 9.09148 2.78185 9.16436 2.7886 9.23664C2.79535 9.30892 2.81776 9.37887 2.85427 9.44162C2.89078 9.50437 2.94051 9.55841 3.00002 9.6L4.96002 11.56C5.24127 11.8409 5.62252 11.9987 6.02002 11.9987C6.41752 11.9987 6.79877 11.8409 7.08002 11.56L9.04002 9.6C9.13118 9.50435 9.18077 9.3765 9.17796 9.2444C9.17515 9.1123 9.12016 8.98668 9.02502 8.895Z" fill="#171C8F"/>
</g>
<defs>
<clipPath id="clip0_1983_59883">
<rect width="12" height="12" fill="white"/>
</clipPath>
</defs>
</svg>
